<?xml version="1.0" standalone="no"?>
<!DOCTYPE svg PUBLIC "-//W3C//DTD SVG 20010904//EN"
 "http://www.w3.org/TR/2001/REC-SVG-20010904/DTD/svg10.dtd">
<svg version="1.0" xmlns="http://www.w3.org/2000/svg"
 width="300.000000pt" height="300.000000pt" viewBox="0 0 300.000000 300.000000"
 preserveAspectRatio="xMidYMid meet">
<metadata>
Created by potrace 1.10, written by Peter Selinger 2001-2011
</metadata>
<g transform="translate(0.000000,300.000000) scale(0.050000,-0.050000)"
fill="#4a3892" stroke="none">
<path d="M3934 4611 c-19 -70 -39 -140 -45 -155 -7 -20 29 -38 126 -64 74 -20
149 -41 166 -46 27 -7 105 228 102 308 -1 15 -230 84 -284 85 -21 1 -41 -39
-65 -128z"/>
<path d="M4384 4525 c-63 -54 -70 -111 -23 -172 56 -71 142 -71 198 0 97 123
-57 274 -175 172z m146 -93 c0 -104 -127 -125 -147 -24 -13 66 14 95 82 88 57
-5 65 -13 65 -64z"/>
<path d="M3640 4380 c-80 -80 -33 -207 78 -207 121 0 174 136 82 211 -58 47
-110 46 -160 -4z m156 -84 c9 -72 -52 -107 -113 -64 -75 53 -37 135 57 124 38
-5 52 -19 56 -60z"/>
<path d="M4582 4292 c-38 -46 -8 -112 50 -112 56 0 84 50 54 98 -28 44 -74 50
-104 14z"/>
<path d="M4246 4088 c-112 -168 -114 -174 -76 -202 343 -248 293 -244 433 -32
l113 172 -153 102 c-84 56 -164 109 -177 118 -17 10 -62 -41 -140 -158z"/>
<path d="M3862 4158 c-27 -10 -152 -46 -279 -79 -127 -33 -232 -62 -235 -64
-16 -18 174 -605 196 -603 14 1 153 36 308 78 l282 76 -44 152 c-25 84 -61
222 -81 307 -38 163 -49 173 -147 133z m-134 -243 c10 -20 14 -20 24 0 18 39
48 30 48 -14 0 -25 10 -36 27 -29 52 20 73 -151 23 -192 -21 -17 -30 -18 -30
-2 0 12 -10 22 -21 22 -12 0 -16 -9 -9 -20 14 -23 6 -25 -38 -8 -18 7 -26 22
-19 33 8 12 4 15 -9 7 -12 -7 -17 -27 -10 -45 9 -23 2 -29 -26 -24 -28 6 -39
26 -41 77 -2 39 -4 81 -5 95 -1 14 -12 25 -23 25 -12 0 -17 -7 -11 -16 5 -9 2
-28 -7 -42 -11 -18 -16 -9 -16 26 0 29 8 52 17 52 9 0 12 16 5 35 -9 30 -7 30
11 5 20 -26 25 -26 43 5 25 41 51 45 67 10z"/>
<path d="M2161 3891 c-11 -26 -22 -83 -25 -125 l-6 -76 86 -6 c90 -7 129 -47
87 -89 -46 -46 -24 -71 58 -67 70 4 85 13 115 73 33 67 37 69 136 63 109 -7
159 24 136 83 -14 37 -177 48 -198 13 -24 -39 -70 -19 -115 50 -79 123 -241
171 -274 81z"/>
<path d="M4230 3608 c-39 -39 -33 -86 15 -116 75 -47 155 70 83 122 -46 34
-58 33 -98 -6z"/>
<path d="M3262 3572 c-14 -17 -19 -49 -12 -71 16 -52 125 -58 144 -8 28 74
-82 140 -132 79z"/>
<path d="M2193 3390 c-28 -50 -56 -109 -63 -131 -8 -23 -36 -50 -64 -60 -27
-11 -60 -46 -72 -79 -21 -57 -29 -60 -132 -60 -126 0 -253 -54 -309 -132 -45
-63 -39 -70 77 -83 l92 -10 -71 -60 c-226 -186 -152 -522 132 -598 228 -60
479 159 425 372 -11 44 -6 51 36 51 55 0 128 -69 139 -130 7 -38 25 -40 445
-44 l438 -4 45 -76 c82 -136 139 -156 459 -156 l280 0 0 49 c0 36 -13 52 -50
61 -32 8 -50 26 -50 51 0 36 17 39 225 45 224 5 225 5 225 55 0 45 -8 49 -88
49 -102 0 -153 41 -112 90 21 25 58 28 210 17 172 -12 187 -10 207 27 34 64
-9 86 -172 86 -142 0 -148 2 -141 45 5 38 20 46 102 51 193 12 144 113 -52
106 -144 -4 -202 30 -153 89 19 24 61 30 174 27 151 -4 194 15 171 75 -8 20
-64 27 -224 27 -118 0 -223 9 -234 20 -12 12 -46 12 -97 -2 -55 -16 -100 -15
-159 1 -53 15 -247 21 -549 17 l-466 -6 71 -90 c196 -246 101 -430 -214 -414
-333 16 -499 368 -326 689 l68 125 -86 0 c-82 0 -89 -5 -137 -90z m1023 -425
c14 -3 30 8 37 24 8 23 20 25 48 11 25 -14 41 -13 51 3 10 16 22 12 41 -14 22
-30 27 -31 27 -5 0 31 104 39 133 10 7 -7 30 -3 52 9 48 25 173 5 187 -31 13
-34 68 -33 68 1 0 32 34 36 44 5 4 -12 40 -22 81 -22 72 0 114 -28 122 -80 2
-14 10 -36 17 -47 25 -40 -16 -156 -48 -136 -11 7 -28 0 -37 -15 -26 -41 -98
-38 -120 5 -14 25 -14 37 0 37 12 0 21 9 21 20 0 12 -21 15 -50 8 -55 -14 -63
7 -29 78 18 37 17 39 -5 13 -39 -46 -92 -24 -107 45 -9 43 -18 53 -30 35 -9
-15 -12 -34 -6 -43 5 -9 -4 -16 -21 -16 -16 0 -36 10 -43 21 -7 12 -26 17 -42
11 -16 -7 -24 -3 -17 8 17 28 -17 25 -46 -4 -19 -19 -24 -18 -24 5 0 16 -18 2
-40 -31 -28 -43 -40 -50 -40 -25 0 19 -10 35 -22 35 -12 0 -18 -11 -13 -25 11
-34 -39 -81 -68 -63 -14 9 -18 5 -9 -9 8 -13 1 -29 -17 -35 -17 -7 -31 -21
-31 -31 0 -10 -18 -38 -40 -62 -32 -34 -40 -36 -40 -11 0 17 -22 37 -49 44
-46 12 -47 15 -20 67 34 64 37 118 9 135 -11 7 -19 23 -18 36 1 17 4 17 11 -1
14 -35 47 -31 47 5 0 17 -7 30 -17 30 -9 0 -16 15 -16 33 0 27 3 28 21 5 12
-16 34 -30 48 -33z m-996 -199 c0 -3 -10 -6 -23 -6 -13 0 -18 5 -12 12 7 7 4
23 -7 35 -11 13 -32 41 -47 63 -28 39 -28 39 -43 1 -10 -24 -6 -42 8 -46 13
-5 24 -23 24 -41 0 -26 -13 -20 -51 22 -62 66 -57 118 11 135 43 10 140 -110
140 -175z m-215 -84 c148 -133 52 -382 -147 -382 -67 0 -95 13 -153 71 -198
198 90 498 300 311z m1747 -30 c179 -179 -27 -458 -253 -342 -199 103 -124
410 101 410 69 0 96 -12 152 -68z m-552 -172 c0 -13 -137 -20 -370 -20 -233 0
-370 7 -370 20 0 13 137 20 370 20 233 0 370 -7 370 -20z"/>
<path d="M4220 3420 c-54 -54 -52 -149 4 -189 93 -65 216 -13 216 90 0 72 -63
139 -130 139 -27 0 -68 -18 -90 -40z m170 -60 c20 -33 -9 -97 -50 -110 -52
-17 -120 23 -120 70 0 84 125 113 170 40z"/>
<path d="M2709 3398 c-6 -10 0 -50 14 -88 l25 -70 696 0 c613 0 696 4 696 31
0 26 -53 30 -405 29 -323 -2 -404 3 -398 24 31 106 55 98 -294 95 -178 -1
-328 -11 -334 -21z"/>
<path d="M4552 2909 c-19 -50 3 -69 81 -69 61 0 69 6 63 45 -8 57 -123 77
-144 24z"/>
<path d="M4447 2470 c-18 -46 18 -74 86 -67 41 5 57 18 57 47 0 53 -123 70
-143 20z"/>
<path d="M4143 2282 c-73 -46 -15 -92 124 -98 154 -7 205 16 172 78 -22 41
-240 56 -296 20z"/>
<path d="M2033 2006 c-7 -7 -13 -83 -13 -169 l0 -157 70 0 c75 0 96 37 30 54
-35 9 -40 27 -40 137 0 118 -17 166 -47 135z"/>
<path d="M2190 1996 c-19 -48 -2 -326 20 -326 27 0 37 311 12 336 -14 14 -24
11 -32 -10z"/>
<path d="M2956 1968 c-23 -49 -24 -50 -39 -10 -9 23 -30 42 -46 42 -37 0 -38
-9 -8 -66 13 -24 29 -92 35 -152 14 -130 62 -166 62 -46 0 43 14 117 30 164
45 127 17 182 -34 68z"/>
<path d="M3211 1989 c-45 -46 -39 -79 32 -159 46 -53 57 -78 41 -94 -17 -17
-26 -14 -35 11 -16 39 -69 44 -69 6 0 -78 104 -113 147 -51 35 50 25 89 -44
163 -36 40 -45 61 -29 77 15 15 25 15 35 0 19 -32 51 -27 51 7 0 16 -17 39
-39 50 -50 27 -52 27 -90 -10z"/>
<path d="M4305 2004 l-65 -7 0 -156 0 -156 65 -11 c36 -5 73 -2 82 6 26 24 -3
60 -48 60 -26 0 -39 14 -39 40 0 22 13 40 30 40 17 0 30 9 30 20 0 11 -13 20
-30 20 -17 0 -30 18 -30 40 0 26 13 40 39 40 44 0 74 36 48 57 -9 8 -46 11
-82 7z"/>
<path d="M1640 1845 c0 -183 1 -184 86 -167 l64 14 0 149 0 149 -75 6 -75 6 0
-157z m116 -17 c-3 -54 -15 -98 -26 -98 -23 0 -39 159 -21 206 24 60 54 -9 47
-108z"/>
<path d="M1840 1840 l0 -162 70 6 c73 6 99 47 29 44 -28 -1 -39 12 -39 45 0
28 12 47 30 47 17 0 30 9 30 20 0 11 -13 20 -30 20 -18 0 -30 19 -30 47 0 33
11 46 39 45 74 -3 51 38 -24 44 l-75 6 0 -162z"/>
<path d="M2280 1979 c0 -119 50 -299 83 -299 36 0 42 15 65 153 5 34 16 86 23
115 10 40 6 52 -18 52 -23 0 -35 -28 -45 -102 -15 -115 -47 -97 -48 27 0 53
-9 75 -30 75 -16 0 -30 -10 -30 -21z"/>
<path d="M2500 1840 l0 -160 72 0 c79 0 88 45 11 56 -54 8 -57 64 -3 78 52 14
51 38 -2 52 -52 14 -44 84 11 84 20 0 41 11 46 25 6 17 -15 25 -63 25 l-72 0
0 -160z"/>
<path d="M2660 1841 c0 -130 6 -161 30 -161 20 0 30 20 30 61 0 36 8 56 20 49
11 -7 20 -34 20 -61 0 -45 15 -57 55 -44 8 3 11 14 7 25 -5 11 -9 79 -10 150
l-2 130 -75 6 -75 6 0 -161z m116 56 c-9 -64 -56 -71 -56 -9 0 34 11 52 31 52
21 0 30 -15 25 -43z"/>
<path d="M3380 1840 l0 -160 82 0 c87 0 104 44 21 56 -49 8 -61 84 -13 84 17
0 30 9 30 20 0 11 -13 20 -30 20 -52 0 -35 78 20 92 77 19 59 48 -30 48 l-80
0 0 -160z"/>
<path d="M3560 1840 c0 -120 7 -160 27 -160 18 0 23 19 17 60 -11 79 25 78 48
-2 20 -66 61 -73 54 -8 -9 77 -8 101 5 155 17 71 -19 115 -93 115 l-58 0 0
-160z m100 60 c0 -49 -37 -71 -52 -31 -16 41 6 97 32 81 11 -7 20 -29 20 -50z"/>
<path d="M3742 1985 c30 -289 118 -418 144 -211 7 53 18 125 25 161 11 52 8
65 -18 65 -24 0 -33 -19 -34 -65 -3 -129 -33 -154 -49 -40 -12 83 -77 169 -68
90z"/>
<path d="M3964 1835 c8 -212 44 -209 52 5 5 135 1 160 -26 160 -27 0 -31 -25
-26 -165z"/>
<path d="M4073 1987 c-35 -35 -13 -285 27 -307 43 -23 130 41 115 85 -14 41
-50 37 -61 -6 -19 -74 -54 -21 -54 81 0 102 35 155 54 82 11 -45 36 -55 56
-22 35 56 -89 135 -137 87z"/>
<path d="M2963 258 c-38 -30 -42 -43 -23 -78 33 -62 128 -48 136 20 8 74 -54
106 -113 58z"/>
<path d="M2131 233 c-75 -55 -25 -92 117 -86 98 4 133 -2 142 -23 9 -24 17
-24 55 1 29 19 82 27 150 22 l105 -6 0 61 c0 43 -7 56 -25 45 -37 -23 -294
-20 -303 3 -6 13 -14 13 -25 0 -20 -23 -152 -27 -168 -5 -6 8 -28 3 -48 -12z"/>
<path d="M2740 201 c0 -65 33 -79 78 -36 22 20 24 16 13 -25 l-13 -50 41 47
c48 56 53 92 11 76 -16 -7 -30 -2 -30 11 0 12 -6 17 -13 10 -7 -7 -29 -4 -50
7 -32 18 -37 13 -37 -40z"/>
<path d="M3120 202 c0 -49 9 -62 40 -62 24 0 40 13 40 34 0 30 3 30 27 -3 15
-21 37 -31 48 -24 12 7 46 4 76 -7 30 -12 64 -14 76 -5 13 9 124 15 248 13
223 -3 225 -2 225 44 0 54 -268 67 -289 14 -15 -39 -45 -31 -57 14 -10 38 -94
60 -94 25 0 -19 -185 -16 -275 4 -62 14 -65 12 -65 -47z"/>
</g>
</svg>
