<?xml version="1.0" standalone="no"?>
<!DOCTYPE svg PUBLIC "-//W3C//DTD SVG 20010904//EN"
 "http://www.w3.org/TR/2001/REC-SVG-20010904/DTD/svg10.dtd">
<svg version="1.0" xmlns="http://www.w3.org/2000/svg"
 width="660.000000pt" height="690.000000pt" viewBox="0 0 660.000000 690.000000"
 preserveAspectRatio="xMidYMid meet">
<metadata>
Created by potrace 1.10, written by Peter Selinger 2001-2011
</metadata>
<g transform="translate(0.000000,690.000000) scale(0.100000,-0.100000)"
fill="#5f1e9d" stroke="none">
<path d="M1220 6560 c-90 -8 -157 -23 -203 -46 -16 -8 -35 -14 -44 -14 -8 0
-27 -6 -41 -14 -15 -7 -47 -23 -72 -35 -25 -12 -58 -31 -75 -41 -16 -11 -39
-24 -50 -29 -65 -29 -288 -259 -326 -336 -17 -36 -36 -66 -48 -78 -6 -6 -11
-19 -11 -28 0 -9 -7 -22 -15 -29 -8 -7 -15 -21 -15 -30 0 -10 -6 -31 -14 -47
-17 -32 -38 -108 -60 -209 -14 -64 -16 -303 -16 -2111 0 -1780 2 -2046 15
-2096 8 -32 15 -68 15 -80 0 -42 35 -137 96 -260 58 -116 64 -127 75 -127 5 0
9 -5 9 -11 0 -16 81 -112 149 -177 119 -115 316 -229 451 -262 19 -5 53 -13
75 -19 121 -31 223 -32 2225 -28 1182 2 2040 8 2075 13 33 6 70 15 82 22 12 7
31 12 42 12 11 0 37 7 58 16 92 39 109 47 123 55 8 4 34 18 58 30 23 11 48 26
55 33 7 6 32 24 57 40 89 58 238 223 303 336 69 119 114 233 128 321 4 31 13
68 19 83 7 19 10 695 10 2100 0 1818 -2 2079 -15 2116 -8 23 -15 57 -15 74 0
18 -7 41 -15 52 -8 10 -15 30 -15 42 0 13 -6 36 -14 50 -7 15 -28 59 -47 97
-30 63 -64 121 -80 135 -3 3 -21 26 -41 52 -77 103 -174 193 -282 262 -63 40
-200 106 -220 106 -8 0 -27 6 -43 14 -44 22 -111 37 -203 46 -103 10 -4020 9
-4140 0z m3957 -1162 c10 -8 13 -81 13 -352 0 -187 -4 -346 -8 -353 -6 -9 -81
-13 -282 -16 -251 -3 -278 -5 -309 -22 -45 -26 -62 -43 -84 -85 -16 -32 -18
-61 -15 -303 l3 -269 305 1 c168 1 311 -3 318 -7 14 -9 6 -158 -17 -337 -13
-100 -32 -265 -38 -325 -3 -25 -9 -49 -14 -54 -5 -6 -126 -10 -281 -10 l-273
-1 -3 -1049 c-1 -663 -6 -1053 -12 -1061 -12 -15 -925 -18 -952 -4 -17 9 -18
63 -18 1056 0 575 -2 1049 -6 1052 -3 3 -81 6 -172 6 -92 0 -173 4 -179 8 -18
12 -19 697 -1 715 8 8 63 12 180 12 126 0 170 3 173 13 3 6 7 136 9 287 5 294
15 442 34 477 7 12 12 35 12 52 0 16 6 42 14 58 14 29 40 87 50 113 8 20 24
46 60 95 32 43 135 145 147 145 4 0 14 6 21 13 13 12 103 58 181 91 21 9 49
16 63 16 14 0 35 5 47 12 39 21 294 35 661 36 248 1 364 -2 373 -10z"/>
</g>
</svg>
