<?xml version="1.0" standalone="no"?>
<!DOCTYPE svg PUBLIC "-//W3C//DTD SVG 20010904//EN"
 "http://www.w3.org/TR/2001/REC-SVG-20010904/DTD/svg10.dtd">
<svg version="1.0" xmlns="http://www.w3.org/2000/svg"
 width="300.000000pt" height="303.000000pt" viewBox="0 0 300.000000 303.000000"
 preserveAspectRatio="xMidYMid meet">
<metadata>
Created by potrace 1.10, written by Peter Selinger 2001-2011
</metadata>
<g transform="translate(0.000000,303.000000) scale(0.050000,-0.050000)"
fill="#5f1e9d" stroke="none">
<path d="M1844 5940 c-1054 -65 -1598 -502 -1757 -1410 -73 -418 -57 -2828 22
-3193 135 -630 578 -1079 1211 -1226 343 -80 2871 -98 3240 -24 745 151 1184
579 1332 1298 87 424 80 2827 -9 3246 -157 741 -665 1186 -1473 1291 -201 26
-2209 40 -2566 18z m626 -160 c-16 -26 52 -26 119 0 28 10 51 12 51 5 0 -8
236 -13 525 -10 468 4 681 3 1055 -4 61 -1 121 -9 135 -18 14 -9 76 -16 137
-16 62 0 106 -6 99 -12 -17 -18 145 -64 224 -65 36 0 65 -7 65 -15 0 -8 27
-27 60 -42 33 -14 55 -35 49 -45 -6 -10 7 -19 30 -20 22 -2 50 -5 61 -8 11 -3
28 -6 38 -7 23 -4 242 -219 278 -274 14 -21 20 -28 14 -14 -30 63 10 16 47
-54 30 -57 34 -81 17 -89 -13 -7 -4 -7 21 0 37 9 45 2 45 -37 0 -54 58 -146
60 -95 2 46 101 -240 112 -320 21 -165 20 -170 -22 -166 -37 3 -38 1 -5 -23
19 -14 35 -35 35 -47 0 -11 10 -24 21 -28 13 -4 23 -107 26 -270 2 -146 11
-271 19 -278 20 -21 18 -53 -3 -40 -10 6 -13 -14 -8 -44 14 -85 16 -1067 3
-1075 -16 -10 2 -107 22 -119 8 -5 7 -52 -3 -103 -9 -52 -12 -112 -5 -133 7
-24 4 -34 -8 -27 -13 8 -14 -13 -3 -61 11 -49 8 -98 -10 -149 -14 -42 -18 -71
-8 -65 36 22 -2 -496 -42 -570 -12 -23 -18 -51 -12 -61 27 -44 -131 -454 -192
-497 -20 -15 -37 -37 -37 -51 0 -49 -212 -273 -259 -273 -12 0 -21 -10 -21
-21 0 -12 11 -15 25 -7 14 8 18 7 9 -3 -8 -9 -35 -20 -60 -23 -24 -4 -56 -22
-70 -41 -15 -19 -37 -32 -50 -29 -12 4 -34 -9 -48 -28 -14 -19 -32 -29 -39
-21 -8 7 -28 0 -45 -15 -18 -16 -69 -38 -115 -50 -45 -12 -93 -36 -107 -52
-32 -38 -73 -38 -87 0 -13 34 -53 41 -53 9 0 -12 9 -16 20 -9 11 7 20 4 20 -6
0 -26 -65 -37 -205 -35 -63 0 -117 -5 -120 -13 -12 -33 -275 -38 -275 -5 0 18
-11 28 -25 23 -14 -5 -23 -18 -21 -30 3 -12 -32 -20 -84 -18 -49 1 -95 -4
-102 -11 -6 -7 -34 -4 -60 6 -30 11 -48 11 -48 -1 0 -11 -13 -20 -30 -20 -16
0 -30 7 -30 17 0 15 -106 13 -285 -5 -49 -6 -71 -1 -62 13 8 12 4 15 -10 7
-13 -8 -120 -14 -238 -13 -118 1 -269 1 -335 -1 -131 -4 -144 -4 -320 -1 -66
1 -147 1 -180 1 -178 -4 -418 22 -433 46 -13 21 -16 21 -17 -1 0 -19 -14 -24
-45 -14 -25 8 -81 18 -125 24 -44 5 -104 19 -134 30 -29 12 -63 15 -75 8 -12
-8 -35 0 -52 17 -17 17 -51 28 -75 24 -53 -8 -120 23 -103 49 10 16 -59 29
-77 14 -4 -3 -23 11 -42 30 -19 20 -43 30 -54 24 -10 -6 -18 -1 -18 11 0 14
18 18 45 10 39 -10 40 -9 10 10 -19 12 -46 15 -60 7 -64 -40 -87 -26 -55 33
21 39 19 41 -105 69 -30 6 -55 25 -55 41 0 17 -10 30 -22 30 -13 0 -52 32 -87
70 -35 39 -70 64 -78 57 -7 -8 -13 14 -13 48 0 35 -12 65 -30 72 -16 7 -30 22
-30 34 0 12 9 16 20 9 11 -7 20 -3 20 9 0 11 -18 21 -41 21 -47 0 -87 81 -51
105 15 10 15 14 -3 15 -14 0 -23 11 -20 25 3 14 -6 23 -20 20 -16 -3 -25 20
-25 65 0 38 -9 70 -20 70 -11 0 -20 13 -20 28 0 16 -11 33 -25 39 -18 8 -15
17 11 33 29 18 31 29 13 52 -13 15 -18 28 -11 28 7 0 1 29 -14 65 -14 36 -25
108 -23 160 2 52 -5 95 -15 95 -11 0 -17 34 -14 76 3 41 1 84 -4 95 -5 10 -9
233 -9 494 1 261 -6 475 -15 475 -9 0 -12 7 -6 16 5 9 12 61 14 115 2 55 12
114 21 133 11 21 8 39 -6 48 -15 9 -18 5 -7 -12 10 -16 8 -21 -4 -14 -11 7
-17 51 -12 98 5 48 12 265 17 483 5 274 15 406 32 427 19 23 19 33 -4 48 -24
15 -24 21 -2 35 19 13 22 29 8 55 -27 53 -11 95 24 62 15 -13 23 -31 18 -39
-5 -8 0 -15 12 -15 34 0 24 44 -22 93 -40 43 -40 123 1 98 10 -6 23 3 29 19 7
17 3 30 -8 30 -10 0 -19 18 -19 40 0 22 10 40 21 40 12 0 16 9 8 21 -7 11 -2
34 12 50 13 16 17 29 9 29 -8 0 -3 14 11 31 14 17 28 53 31 80 6 59 52 108
102 111 20 0 26 5 13 10 -41 17 35 197 106 250 35 26 60 53 56 59 -3 6 24 40
61 76 42 41 71 57 80 43 10 -16 21 -15 42 1 15 13 23 32 17 41 -6 10 3 18 21
18 18 0 27 9 20 20 -7 11 -5 21 4 22 9 0 34 5 56 11 22 5 50 10 63 12 13 1 19
13 14 27 -8 20 47 53 96 57 8 1 20 8 29 16 8 8 40 15 70 15 31 0 62 10 69 22
9 14 20 15 34 1 23 -23 75 -9 75 20 0 11 -11 13 -25 5 -19 -11 -20 -8 -2 11
17 18 34 19 60 5 24 -14 48 -14 74 0 20 11 72 17 114 13 41 -4 72 -2 68 5 -10
15 -6 16 437 26 185 4 341 13 348 20 20 19 30 14 16 -8z"/>
<path d="M2269 5614 c-14 -36 -303 -50 -359 -17 -32 19 -71 21 -60 3 5 -9 -5
-21 -22 -28 -24 -9 -29 -4 -20 21 11 27 8 28 -17 8 -16 -13 -39 -19 -50 -12
-12 8 -21 -2 -21 -20 0 -26 -11 -30 -45 -20 -25 8 -54 13 -65 12 -84 -8 -125
-16 -146 -29 -13 -8 -24 -8 -24 -1 0 8 -15 2 -34 -14 -29 -23 -31 -23 -16 3
15 26 13 26 -16 3 -19 -16 -34 -21 -34 -13 0 8 -13 4 -30 -10 -16 -14 -30 -19
-30 -12 0 7 -22 -2 -50 -20 -27 -18 -50 -25 -50 -16 0 9 -11 5 -24 -8 -13 -13
-51 -25 -85 -26 -34 0 -49 -6 -35 -12 33 -13 -7 -66 -51 -66 -17 0 -45 -16
-63 -36 -17 -20 -47 -42 -65 -49 -19 -7 -71 -63 -116 -124 -45 -61 -89 -111
-97 -111 -22 0 -81 -122 -88 -180 -3 -27 -19 -60 -34 -72 -15 -12 -29 -62 -31
-111 -2 -49 -18 -111 -37 -137 -24 -34 -27 -54 -12 -73 16 -19 8 -38 -31 -75
-47 -43 -48 -48 -12 -38 56 15 57 -74 0 -125 -35 -32 -37 -39 -9 -54 17 -10
25 -26 19 -37 -21 -33 -26 -158 -7 -158 10 0 17 -27 14 -60 -2 -33 -14 -60
-25 -60 -14 -1 -14 -5 -1 -15 26 -18 29 -265 4 -265 -10 0 -14 -12 -8 -28 6
-15 0 -38 -12 -50 -16 -16 -17 -28 -3 -38 12 -8 20 -72 20 -144 -1 -71 3 -139
8 -150 14 -28 13 -150 0 -150 -6 0 -9 -47 -6 -105 10 -160 8 -257 -3 -275 -6
-10 -3 -22 7 -28 18 -11 16 -67 -6 -185 -7 -36 -3 -70 8 -77 12 -7 17 -37 12
-66 -22 -137 -18 -231 9 -214 11 7 20 3 20 -9 0 -11 -11 -21 -25 -21 -18 -1
-17 -5 3 -18 21 -14 25 -55 17 -180 -9 -137 -5 -166 22 -182 20 -11 23 -19 8
-19 -27 -1 -34 -65 -10 -89 8 -9 16 -39 16 -69 1 -29 8 -83 17 -121 12 -47 10
-63 -6 -53 -12 7 -22 5 -22 -4 0 -10 22 -30 48 -44 31 -16 46 -40 42 -63 -4
-20 1 -43 12 -50 17 -10 59 -92 67 -128 5 -25 82 -100 104 -100 13 0 19 -17
13 -40 -8 -30 -1 -40 29 -40 29 0 39 -13 37 -45 -1 -29 11 -47 38 -52 54 -10
153 -82 140 -102 -5 -9 8 -21 30 -27 22 -6 35 -2 29 8 -24 39 32 15 81 -34 44
-44 57 -48 86 -25 19 14 28 18 20 9 -25 -30 31 -64 98 -59 39 3 62 -3 56 -14
-7 -10 14 -19 47 -19 33 0 64 -11 70 -25 6 -14 11 -16 11 -3 1 14 31 17 87 9
47 -7 114 -12 150 -11 36 1 65 -5 65 -13 0 -8 103 -12 230 -10 126 1 230 10
230 19 0 9 11 9 25 0 14 -8 84 -16 155 -17 72 -1 166 -9 211 -17 47 -8 105 -5
137 7 37 14 65 15 80 3 14 -12 35 -12 52 -2 16 10 42 10 61 0 20 -11 41 -10
54 3 14 14 40 10 83 -12 40 -20 62 -24 62 -10 0 15 41 20 120 16 68 -4 124 2
129 13 4 11 17 7 29 -10 12 -16 22 -22 22 -13 0 10 13 7 28 -6 20 -16 32 -17
42 -1 7 11 42 19 77 17 36 -3 77 3 92 12 18 11 36 4 54 -20 15 -20 27 -26 27
-13 0 13 19 24 41 24 23 0 36 -9 29 -20 -7 -11 2 -20 20 -20 19 0 27 9 18 23
-8 13 -3 19 14 13 15 -5 41 4 58 21 27 27 31 26 37 -15 6 -41 10 -42 50 -17
23 15 79 26 123 24 44 -2 96 5 116 15 23 12 57 12 93 -1 42 -14 63 -12 84 8
15 15 48 31 72 35 25 3 56 17 69 30 29 29 76 32 76 5 0 -11 -16 -14 -35 -7
-28 9 -30 7 -11 -14 19 -21 34 -19 78 12 115 81 160 109 218 136 34 16 78 47
99 70 20 23 45 42 54 42 23 0 97 65 97 86 0 36 76 115 85 89 5 -14 21 13 35
60 15 47 34 85 43 85 9 0 17 14 17 30 0 17 9 30 20 30 11 0 20 19 20 41 0 26
8 36 23 27 14 -9 18 -5 9 9 -14 22 14 135 51 209 10 20 14 43 8 53 -6 9 3 28
19 41 17 14 29 40 29 57 -1 25 -6 24 -19 -7 -27 -62 -26 52 1 122 11 30 19
204 18 396 -1 188 0 392 3 452 7 166 5 245 -8 303 -6 29 -4 84 5 122 9 38 7
84 -3 102 -10 18 -11 33 -2 33 20 0 22 322 2 351 -7 12 -6 54 3 93 16 74 11
452 -7 470 -5 6 -1 33 10 61 14 38 13 56 -6 68 -21 14 -20 21 4 37 20 13 22
19 5 20 -35 0 -31 40 10 88 19 23 26 35 17 27 -35 -29 -71 25 -51 77 12 32 11
48 -3 48 -11 0 -16 16 -10 35 14 47 -36 230 -57 211 -10 -9 -12 -1 -6 17 7 17
-2 58 -19 90 -17 31 -33 71 -36 87 -11 65 -36 120 -54 120 -10 0 -13 9 -6 20
7 11 -7 20 -30 20 -28 0 -37 8 -27 25 39 63 17 117 -29 71 -19 -19 -24 -16
-24 11 0 19 -16 40 -35 47 -19 7 -47 30 -61 50 -15 20 -35 36 -46 36 -38 0
-103 76 -87 103 9 15 8 21 0 13 -9 -8 -41 -1 -73 15 -31 16 -78 29 -106 29
-63 0 -83 31 -37 58 19 12 26 21 14 21 -12 1 -30 -8 -40 -18 -22 -22 -114 -5
-100 18 5 8 -15 14 -45 15 -156 2 -205 8 -196 22 5 9 -59 18 -143 21 -85 3
-167 16 -183 29 -24 19 -26 19 -14 -2 12 -21 -3 -24 -71 -17 -48 6 -118 11
-157 12 -53 1 -63 6 -40 21 24 16 21 19 -16 20 -26 0 -41 -9 -34 -20 11 -17
-29 -29 -75 -23 -8 2 -120 4 -249 5 -129 1 -244 7 -255 14 -33 20 -151 25
-151 6 0 -16 -45 -14 -140 7 -44 10 -45 9 -10 -8 30 -14 7 -18 -90 -15 -89 3
-129 12 -125 28 3 14 -8 20 -25 13 -16 -6 -25 -19 -19 -29 23 -38 -315 -21
-342 17 -25 33 -27 33 -40 -1z m1911 -214 c685 -47 1033 -290 1169 -816 107
-412 98 -2862 -12 -3218 -123 -399 -378 -640 -782 -736 -292 -70 -2473 -92
-2945 -30 -620 82 -949 430 -1011 1070 -25 265 -26 2407 0 2650 73 699 432
1029 1171 1079 334 23 2081 23 2410 1z"/>
<path d="M4507 4920 c-339 -78 -389 -537 -73 -672 260 -111 556 136 484 403
-52 191 -234 310 -411 269z m109 -202 c4 -8 20 -11 35 -5 16 6 29 1 29 -12 0
-13 8 -19 17 -13 9 6 18 -1 20 -14 2 -13 9 -58 15 -99 10 -59 6 -75 -18 -75
-16 0 -35 -20 -41 -45 -10 -38 -27 -46 -103 -49 -54 -3 -86 4 -79 15 6 11 -9
28 -35 38 -25 10 -39 19 -30 20 9 0 3 15 -14 32 -34 34 -23 82 31 134 19 19
31 48 25 63 -6 17 4 32 26 38 43 11 114 -5 122 -28z"/>
<path d="M2741 4489 c-1083 -196 -1612 -1409 -1014 -2325 717 -1098 2380 -826
2736 446 290 1041 -655 2073 -1722 1879z m439 -155 c17 -4 44 -14 60 -21 17
-7 48 -15 70 -18 22 -4 49 -11 60 -17 44 -25 91 -37 81 -20 -6 10 7 14 29 8
22 -6 40 -20 40 -31 0 -11 18 -15 40 -9 22 6 36 4 31 -4 -5 -8 34 -37 87 -63
84 -42 92 -52 64 -72 -27 -20 -27 -24 -2 -22 86 4 124 -6 114 -33 -8 -19 0
-24 26 -18 30 8 35 1 26 -32 -9 -35 0 -44 52 -55 50 -10 61 -20 51 -50 -8 -25
-2 -37 20 -37 17 0 31 -8 31 -19 0 -10 11 -30 25 -45 47 -52 76 -118 62 -142
-7 -13 -6 -17 3 -9 25 22 70 -24 70 -73 0 -24 14 -63 31 -88 18 -26 29 -75 26
-113 -3 -38 1 -76 10 -85 9 -9 13 -6 10 7 -4 13 1 26 11 30 10 4 20 -15 22
-43 1 -27 10 -97 18 -155 16 -105 8 -119 -56 -106 -10 2 -7 -11 7 -28 17 -21
19 -31 3 -31 -12 0 -22 -13 -22 -30 0 -16 14 -30 30 -30 17 0 30 11 30 23 0
13 6 18 13 11 7 -7 1 -27 -12 -43 -15 -18 -20 -52 -13 -81 10 -39 5 -50 -23
-50 -27 -1 -29 -4 -8 -18 19 -12 21 -21 5 -31 -12 -7 -18 -35 -13 -62 4 -28
-1 -49 -14 -49 -12 0 -16 -6 -8 -13 7 -8 0 -28 -15 -45 -16 -18 -33 -60 -38
-95 -17 -108 -60 -177 -110 -175 -32 2 -39 -4 -25 -21 27 -32 -73 -171 -123
-171 -22 0 -33 -9 -25 -21 17 -28 -107 -139 -153 -139 -20 0 -41 -9 -48 -20
-7 -12 3 -14 24 -7 27 10 31 7 14 -11 -24 -26 -94 -8 -77 20 6 10 1 18 -11 18
-13 0 -19 -11 -14 -25 16 -47 -25 -101 -57 -74 -23 19 -29 18 -29 -6 0 -28
-23 -46 -65 -52 -9 -1 -41 -15 -71 -31 -35 -18 -67 -22 -85 -12 -17 11 -33 10
-41 -3 -7 -11 -56 -20 -110 -20 -54 0 -102 -7 -108 -16 -15 -22 -158 -41 -170
-22 -5 10 -28 13 -50 7 -43 -11 -161 28 -183 62 -9 12 -24 11 -43 -5 -28 -23
-94 -13 -94 16 0 14 -19 19 -107 27 -30 2 -44 14 -38 30 5 14 2 24 -8 22 -41
-7 -67 4 -67 30 0 15 -28 33 -61 39 -43 9 -57 20 -46 38 10 17 4 17 -19 -2
-24 -20 -34 -21 -34 -4 0 13 -27 32 -60 44 -49 17 -60 32 -60 81 0 50 -7 59
-39 50 -30 -7 -49 9 -82 73 -23 46 -56 94 -74 108 -18 13 -26 31 -19 38 7 7 0
23 -17 36 -17 12 -34 38 -36 57 -3 19 -14 33 -23 30 -18 -6 -49 93 -56 176 -2
23 -14 54 -26 70 -13 15 -21 48 -19 73 3 25 -3 45 -12 45 -10 0 -17 14 -17 30
0 17 15 30 33 30 30 0 30 3 -2 39 -19 21 -29 48 -22 60 7 11 2 22 -13 23 -17
1 -18 4 -3 11 12 5 18 26 13 48 -6 21 -4 54 5 74 8 19 17 67 19 105 7 101 8
104 30 90 13 -8 13 5 1 37 -10 27 -12 55 -5 63 8 7 14 24 14 37 0 13 11 24 25
26 45 4 47 7 24 48 -19 36 -16 44 21 53 33 9 37 16 17 28 -17 11 -18 18 -4 18
21 0 58 90 51 124 -2 7 15 19 37 26 23 8 38 27 35 47 -4 21 7 32 29 30 22 -1
35 11 35 34 0 20 27 53 60 72 41 24 52 40 35 51 -18 11 -14 15 10 16 19 0 35
10 35 23 0 13 6 18 13 11 16 -16 91 23 80 42 -8 13 40 70 52 61 12 -10 135 54
135 70 0 10 13 12 30 6 17 -7 30 -3 30 8 0 10 16 19 35 19 38 1 191 49 255 81
41 21 119 17 143 -7 7 -7 25 -4 40 9 20 16 27 15 28 -6 0 -17 8 -14 22 10 21
36 76 38 197 7z"/>
<path d="M3106 4152 c2 -11 -13 -23 -33 -28 -21 -4 -32 1 -26 11 7 11 -8 17
-33 14 -24 -3 -82 -10 -129 -16 -51 -7 -85 -3 -85 10 0 11 -14 6 -31 -12 -34
-33 -58 -42 -41 -14 6 10 -14 14 -44 9 -30 -5 -72 -8 -94 -8 -31 0 -33 -4 -11
-17 17 -11 43 -11 63 0 24 13 37 10 45 -9 7 -21 -12 -30 -73 -37 -108 -10
-137 -19 -171 -51 -16 -15 -50 -41 -76 -58 -25 -17 -43 -36 -39 -43 5 -7 -20
-13 -55 -13 -45 0 -63 -9 -63 -33 0 -33 -81 -117 -113 -117 -9 0 -17 -10 -17
-21 0 -12 9 -16 20 -9 11 7 15 -1 9 -16 -6 -16 -33 -40 -61 -55 -27 -14 -46
-35 -42 -47 4 -11 -12 -41 -34 -67 -26 -30 -39 -69 -35 -106 4 -44 -2 -59 -27
-59 -18 0 -27 9 -20 20 7 11 3 20 -9 20 -11 0 -21 -18 -21 -39 0 -29 10 -37
35 -29 33 10 33 10 1 -11 -21 -13 -29 -35 -22 -55 9 -23 5 -28 -14 -16 -19 12
-21 9 -10 -11 10 -15 16 -129 14 -253 -2 -140 5 -226 17 -226 14 0 14 -12 1
-37 -26 -48 -20 -121 9 -110 28 11 77 -45 61 -70 -18 -29 47 -143 82 -143 19
0 26 -11 19 -30 -6 -16 -5 -29 3 -27 39 5 65 -5 55 -22 -22 -34 12 -121 46
-121 19 0 42 -20 53 -45 14 -31 36 -44 72 -43 42 2 51 -5 43 -35 -6 -21 1 -37
15 -37 13 0 20 -12 14 -26 -7 -19 6 -24 48 -18 40 6 61 -1 70 -24 7 -17 20
-27 30 -21 10 6 18 -3 18 -20 0 -17 10 -31 21 -31 12 0 16 9 9 20 -20 33 14
23 39 -12 16 -21 65 -35 151 -41 70 -5 139 -18 152 -29 15 -12 27 -12 31 -1 7
19 102 29 223 25 31 -1 51 -11 45 -21 -13 -21 67 -10 87 12 6 7 -3 8 -22 1
-24 -8 -31 -4 -23 16 6 15 24 22 42 15 21 -8 27 -4 17 12 -9 14 -2 23 17 23
17 0 31 -11 31 -25 1 -17 7 -15 20 5 11 17 20 21 20 10 0 -11 9 -6 20 10 18
27 22 27 40 0 15 -23 19 -24 20 -3 0 16 12 23 31 15 17 -6 26 -4 20 6 -6 10
21 37 59 59 39 23 70 51 70 62 0 12 35 35 77 52 70 28 150 108 161 159 2 11
26 32 53 46 27 14 49 41 49 60 0 19 17 45 37 58 24 15 36 42 32 75 -3 28 2 51
10 51 9 0 21 19 27 42 6 23 19 37 29 31 10 -6 18 1 18 17 0 16 -6 25 -13 20
-15 -9 -11 126 6 170 18 50 28 160 14 160 -8 0 -12 63 -11 140 1 77 -5 140
-14 140 -10 0 -13 7 -8 15 5 9 -11 60 -36 115 -26 55 -42 109 -36 120 6 11 4
14 -4 6 -17 -15 -71 30 -71 59 0 11 -18 35 -40 55 -23 21 -38 46 -34 57 11 33
-151 180 -251 227 -52 24 -95 54 -95 66 0 12 -9 17 -20 10 -11 -7 -20 -2 -20
11 0 14 -17 19 -40 13 -22 -6 -35 -2 -29 8 20 31 -50 44 -86 16 -28 -22 -27
-18 3 17 48 56 28 80 -44 53 -65 -25 -104 -16 -104 23 0 18 -18 27 -49 25 -26
-3 -47 -13 -45 -24z m76 -192 c544 -103 907 -675 767 -1211 -192 -736 -1112
-986 -1650 -448 -679 679 -62 1837 883 1659z"/>
</g>
</svg>
