<?xml version="1.0" standalone="no"?>
<!DOCTYPE svg PUBLIC "-//W3C//DTD SVG 20010904//EN"
 "http://www.w3.org/TR/2001/REC-SVG-20010904/DTD/svg10.dtd">
<svg version="1.0" xmlns="http://www.w3.org/2000/svg"
 width="900.000000pt" height="912.000000pt" viewBox="0 0 900.000000 912.000000"
 preserveAspectRatio="xMidYMid meet">
<metadata>
Created by potrace 1.10, written by Peter Selinger 2001-2011
</metadata>
<g transform="translate(0.000000,912.000000) scale(0.100000,-0.100000)"
fill="#5f1e9d" stroke="none">
<path d="M770 9076 c-47 -6 -89 -14 -95 -17 -5 -4 -25 -10 -43 -14 -18 -4 -45
-13 -60 -21 -15 -8 -35 -14 -44 -14 -9 0 -19 -4 -23 -9 -3 -6 -26 -20 -50 -32
-25 -12 -45 -26 -45 -29 0 -4 -11 -12 -24 -18 -66 -30 -225 -211 -267 -304 -7
-16 -16 -28 -21 -28 -4 0 -8 -7 -8 -16 0 -9 -6 -30 -13 -47 -26 -61 -47 -143
-57 -231 -16 -129 -16 -7366 -1 -7491 15 -116 46 -222 87 -298 9 -15 21 -38
28 -50 50 -94 207 -266 255 -282 12 -3 21 -10 21 -15 0 -5 10 -12 22 -15 13
-4 37 -18 55 -31 17 -13 38 -24 45 -24 7 0 25 -6 40 -14 15 -8 42 -17 60 -21
18 -4 38 -11 43 -15 39 -29 259 -31 3821 -31 2478 0 3622 4 3682 11 86 11 168
31 229 57 17 7 36 13 43 13 6 0 26 11 43 24 18 13 42 27 55 31 12 3 22 10 22
14 0 4 11 13 24 19 35 16 158 134 192 184 16 24 32 45 35 48 17 15 92 175 109
235 40 136 39 82 39 3905 0 3047 -2 3691 -14 3770 -14 101 -28 156 -51 207 -8
17 -14 38 -14 47 0 9 -4 16 -8 16 -5 0 -19 21 -32 48 -13 26 -26 49 -29 52 -3
3 -19 24 -35 48 -34 50 -157 168 -192 184 -13 6 -24 14 -24 18 0 3 -21 17 -46
31 -25 13 -55 30 -67 36 -12 7 -30 13 -39 13 -9 0 -19 4 -22 9 -3 5 -22 12
-42 16 -20 3 -44 10 -53 15 -53 28 -287 30 -3828 29 -2603 -1 -3642 -5 -3703
-13z m1950 -1997 c35 -5 69 -14 75 -18 5 -5 23 -11 39 -15 80 -19 212 -141
258 -237 50 -107 53 -120 53 -249 0 -146 -13 -191 -87 -306 -48 -75 -155 -145
-288 -190 -86 -28 -294 -26 -375 5 -122 46 -208 112 -268 205 -43 68 -57 106
-73 201 -14 88 -5 215 21 270 58 126 73 151 128 201 128 119 313 166 517 133z
m3210 -1378 c72 -12 166 -37 192 -52 10 -5 23 -9 30 -9 15 0 126 -56 189 -95
48 -30 137 -102 184 -150 44 -44 148 -183 173 -232 11 -23 26 -50 31 -60 6
-10 20 -40 31 -68 12 -27 25 -59 30 -70 13 -31 47 -154 58 -215 38 -201 42
-313 43 -1388 1 -618 -2 -1056 -7 -1060 -5 -4 -239 -6 -521 -4 l-512 3 -3
1027 -4 1027 -22 88 c-13 48 -34 108 -47 134 -14 25 -25 50 -25 56 0 5 -15 28
-32 51 -78 98 -155 147 -272 171 -88 19 -143 19 -226 1 -173 -36 -316 -152
-395 -321 -63 -134 -60 -81 -60 -1202 0 -562 -3 -1024 -6 -1027 -8 -9 -1021
-8 -1030 1 -4 4 -9 730 -12 1613 -3 1098 -8 1618 -16 1645 -21 81 -55 75 449
75 516 0 470 10 470 -102 0 -35 4 -78 10 -96 5 -19 12 -83 16 -143 4 -60 10
-109 14 -109 4 0 40 40 79 89 59 75 125 139 199 196 7 6 18 15 25 20 42 36
253 145 281 145 7 0 16 4 22 9 13 12 173 51 214 52 19 0 44 4 55 9 26 12 311
5 395 -9z m-2818 -1731 c-3 -1241 -7 -1667 -15 -1672 -7 -4 -235 -8 -508 -8
-399 0 -499 3 -514 13 -17 13 -18 71 -13 1667 5 1384 8 1654 19 1661 8 5 244
8 524 6 l510 -2 -3 -1665z"/>
</g>
</svg>
