<?xml version="1.0" standalone="no"?>
<!DOCTYPE svg PUBLIC "-//W3C//DTD SVG 20010904//EN"
 "http://www.w3.org/TR/2001/REC-SVG-20010904/DTD/svg10.dtd">
<svg version="1.0" xmlns="http://www.w3.org/2000/svg"
 width="300.000000pt" height="264.000000pt" viewBox="0 0 300.000000 264.000000"
 preserveAspectRatio="xMidYMid meet">
<metadata>
Created by potrace 1.10, written by Peter Selinger 2001-2011
</metadata>
<g transform="translate(0.000000,264.000000) scale(0.050000,-0.050000)"
fill="#523a8e" stroke="none">
<path d="M3772 4417 c-28 -86 -72 -257 -72 -281 0 -17 43 -37 115 -54 63 -14
134 -30 157 -36 37 -8 46 5 75 119 17 71 37 142 43 159 9 23 -20 38 -124 66
-75 20 -147 40 -161 45 -13 5 -29 -3 -33 -18z"/>
<path d="M4193 4219 c-81 -64 -71 -168 21 -216 62 -33 82 -29 137 26 119 119
-26 293 -158 190z m126 -48 c13 -16 21 -50 18 -75 -12 -84 -157 -64 -157 22 0
74 93 109 139 53z"/>
<path d="M3434 4064 c-46 -50 -43 -115 7 -165 92 -92 261 25 198 137 -39 69
-153 85 -205 28z m154 -49 c46 -73 -69 -155 -120 -85 -40 54 6 136 70 125 15
-3 38 -21 50 -40z"/>
<path d="M4379 3968 c-19 -23 -21 -41 -6 -65 30 -47 90 -53 120 -12 55 76 -54
150 -114 77z"/>
<path d="M4051 3778 c-61 -88 -111 -164 -111 -167 0 -4 77 -61 170 -128 l170
-121 105 153 c58 85 112 165 120 178 14 21 -290 247 -332 247 -6 0 -60 -73
-122 -162z"/>
<path d="M3704 3859 c-25 -10 -158 -47 -295 -82 -137 -36 -249 -74 -249 -86 3
-131 161 -581 203 -578 113 6 567 142 564 169 -7 59 -158 598 -167 597 -5 -1
-31 -10 -56 -20z m-64 -261 c0 -21 8 -38 18 -38 9 0 22 -19 28 -42 8 -31 4
-38 -19 -30 -19 8 -27 3 -21 -13 5 -14 18 -23 28 -21 11 2 19 -9 19 -25 0 -16
-16 -29 -36 -29 -20 0 -37 -14 -37 -31 0 -19 -14 -29 -35 -26 -19 3 -56 -6
-81 -20 -38 -21 -46 -21 -43 1 7 53 -2 76 -31 76 -27 0 -43 59 -29 110 3 11 6
36 6 56 1 25 13 33 37 27 20 -5 41 -1 47 9 7 10 29 9 53 -4 35 -19 40 -17 30
8 -14 38 1 55 38 40 15 -5 28 -27 28 -48z"/>
<path d="M1984 3614 c-88 -106 -47 -253 71 -254 65 0 95 -59 45 -90 -44 -27
-16 -50 59 -50 70 0 84 8 113 65 44 86 54 90 169 79 78 -7 101 -2 111 24 31
81 -93 115 -204 56 -47 -25 -66 -14 -114 61 -63 100 -207 162 -250 109z"/>
<path d="M4020 3280 c-30 -57 8 -104 78 -96 43 5 52 16 52 66 0 78 -93 99
-130 30z"/>
<path d="M3061 3261 c-26 -48 -9 -96 42 -112 75 -24 129 71 73 127 -36 36 -92
29 -115 -15z"/>
<path d="M1970 3030 c-51 -94 -92 -150 -113 -150 -21 0 -43 -28 -57 -71 -23
-69 -27 -71 -100 -59 -109 18 -237 -23 -315 -101 -82 -82 -71 -109 46 -109 92
0 119 -28 49 -50 -230 -73 -192 -500 54 -603 244 -102 551 138 476 372 -10 34
-4 41 35 41 53 0 135 -75 135 -124 0 -72 46 -79 476 -72 l419 6 42 -73 c72
-125 170 -157 477 -157 221 0 264 5 274 32 16 42 -2 68 -47 68 -58 0 -92 53
-59 92 23 28 59 31 223 23 148 -7 201 -2 217 18 42 50 5 87 -87 87 -93 0 -139
27 -121 72 8 21 58 28 206 28 212 0 273 26 219 91 -20 24 -48 28 -130 18 -128
-16 -189 1 -189 52 0 39 33 53 150 64 142 12 74 84 -90 95 -137 9 -151 14
-156 55 -7 43 -1 45 150 45 171 1 214 16 203 72 -8 42 -498 80 -591 46 -25 -9
-70 -8 -100 2 -67 23 -1026 37 -1026 15 0 -8 31 -55 69 -105 176 -230 92 -390
-205 -390 -345 0 -526 345 -356 678 l72 142 -85 0 -85 0 -80 -150z m1209 -350
c1 26 4 26 20 1 16 -26 21 -26 31 2 8 20 27 29 51 23 21 -6 33 -21 26 -33 -9
-16 -5 -16 13 0 13 13 39 19 56 12 20 -8 26 -4 16 11 -9 16 9 22 57 20 39 -1
71 -8 71 -14 0 -7 19 -24 42 -39 23 -14 37 -17 30 -6 -7 12 5 19 28 18 22 -2
40 -11 40 -20 0 -9 16 -8 35 2 57 31 143 6 135 -39 -8 -42 19 -51 42 -15 17
28 53 -48 58 -123 4 -62 -47 -156 -94 -171 -44 -14 -126 58 -105 93 10 15 7
19 -8 10 -14 -9 -23 -1 -23 18 0 18 -9 27 -19 20 -11 -6 -31 7 -45 29 -14 23
-36 41 -48 41 -13 0 -28 18 -34 40 -6 22 -21 40 -33 40 -13 0 -18 -9 -11 -20
19 -31 -22 -24 -48 8 -25 30 -102 20 -102 -13 0 -11 -14 -8 -32 7 -27 22 -36
21 -57 -7 -14 -19 -29 -30 -34 -26 -5 5 -40 -31 -78 -79 -38 -49 -80 -85 -93
-80 -14 4 -30 0 -35 -9 -13 -21 -96 -2 -115 26 -7 11 1 31 19 44 23 17 30 53
28 136 l-4 114 61 -11 c34 -6 77 -2 96 8 25 14 37 11 48 -14 10 -27 14 -28 15
-4z m-1267 -35 c57 -76 13 -202 -50 -139 -24 24 -30 139 -9 161 20 20 30 16
59 -22z m-87 -285 c91 -100 66 -273 -48 -331 -119 -62 -248 -24 -307 91 -114
221 188 426 355 240z m1727 -8 c56 -56 68 -83 68 -152 0 -225 -307 -300 -410
-101 -114 222 166 429 342 253z m-552 -182 c0 -34 -708 -46 -728 -13 -23 37
27 43 371 43 304 0 357 -4 357 -30z"/>
<path d="M4013 3103 c-105 -116 84 -283 196 -172 45 46 41 163 -8 188 -60 32
-151 25 -188 -16z m175 -48 c30 -48 -7 -103 -74 -111 -66 -8 -106 56 -73 117
26 50 114 47 147 -6z"/>
<path d="M2825 3105 c-179 -4 -325 -14 -325 -23 0 -10 12 -45 26 -79 l26 -62
694 -10 c648 -10 694 -8 694 24 0 32 -32 35 -400 29 -414 -6 -423 -4 -380 76
27 51 31 51 -335 45z"/>
<path d="M4367 2610 c-19 -49 8 -90 60 -90 26 0 59 14 73 30 33 40 -7 90 -73
90 -27 0 -53 -13 -60 -30z"/>
<path d="M4247 2170 c-15 -39 27 -90 73 -90 46 0 88 51 73 90 -7 18 -37 30
-73 30 -36 0 -66 -12 -73 -30z"/>
<path d="M3927 1950 c-21 -56 22 -72 175 -66 133 5 148 10 148 46 0 55 -302
73 -323 20z"/>
<path d="M1460 1530 c0 -186 18 -207 116 -139 94 67 50 309 -57 309 l-59 0 0
-170z m96 10 c-7 -120 -41 -142 -52 -33 -8 86 5 133 36 133 14 0 20 -38 16
-100z"/>
<path d="M1659 1690 c-1 -5 -1 -80 -2 -165 l-1 -155 65 0 c36 0 69 11 74 25 5
16 -11 25 -43 25 -39 0 -52 10 -52 40 0 22 13 40 29 40 48 0 58 42 13 54 -56
14 -55 81 1 90 77 11 68 56 -11 56 -40 0 -72 -4 -73 -10z"/>
<path d="M1824 1535 l6 -165 58 0 c32 0 62 11 67 25 5 15 -9 25 -33 25 -39 0
-42 11 -42 140 0 113 -6 140 -31 140 -26 0 -30 -27 -25 -165z"/>
<path d="M1984 1537 c9 -237 56 -244 56 -9 0 142 -5 172 -31 172 -26 0 -30
-27 -25 -163z"/>
<path d="M2089 1635 c7 -36 18 -109 25 -162 11 -87 48 -138 79 -107 10 10 67
281 67 319 0 77 -58 -6 -71 -100 -16 -122 -43 -94 -47 50 -1 46 -12 65 -34 65
-27 0 -30 -13 -19 -65z"/>
<path d="M2304 1535 l6 -165 65 -6 c48 -5 65 2 65 25 0 18 -17 31 -40 31 -48
0 -56 70 -10 87 17 7 30 21 30 32 0 12 -13 21 -30 21 -17 0 -30 18 -30 40 0
27 13 40 40 40 22 0 40 13 40 30 0 21 -21 30 -71 30 l-71 0 6 -165z"/>
<path d="M2470 1537 c1 -112 9 -167 25 -172 17 -6 25 15 25 63 0 89 25 93 51
8 25 -84 82 -107 59 -24 -9 32 -17 108 -18 168 l-2 110 -70 6 -70 6 0 -165z
m106 60 c-9 -64 -56 -71 -56 -9 0 34 11 52 31 52 21 0 30 -15 25 -43z"/>
<path d="M2663 1645 c12 -30 27 -104 34 -165 9 -79 22 -110 43 -110 21 0 28
17 24 60 -3 33 8 99 25 148 38 107 38 122 3 122 -15 0 -33 -20 -41 -45 l-13
-45 -18 45 c-10 25 -32 45 -49 45 -25 0 -26 -10 -8 -55z"/>
<path d="M3014 1688 c-31 -32 -12 -123 36 -168 76 -71 65 -138 -11 -69 -46 42
-65 7 -27 -48 36 -51 73 -55 117 -12 43 44 39 76 -19 145 -62 74 -65 112 -8
93 33 -10 40 -5 35 24 -7 37 -95 62 -123 35z"/>
<path d="M3191 1535 l5 -165 65 0 c76 0 104 44 35 53 -52 8 -77 77 -27 77 17
0 31 14 31 30 0 17 -13 30 -30 30 -48 0 -36 76 13 84 81 12 66 56 -18 56 l-79
0 5 -165z"/>
<path d="M3364 1535 c6 -168 36 -215 57 -91 l12 66 20 -70 c11 -38 32 -70 48
-70 17 0 25 13 19 30 -5 17 -7 79 -5 138 5 126 -17 162 -98 162 l-59 0 6 -165z"/>
<path d="M3548 1665 c6 -19 20 -92 31 -163 22 -141 27 -152 67 -136 29 11 90
305 68 326 -26 27 -54 -19 -54 -88 0 -41 -9 -87 -20 -104 -15 -24 -19 -19 -20
23 0 97 -25 177 -54 177 -18 0 -25 -13 -18 -35z"/>
<path d="M3764 1537 c9 -237 56 -244 56 -9 0 142 -5 172 -31 172 -26 0 -30
-27 -25 -163z"/>
<path d="M3884 1676 c-42 -42 -31 -271 15 -295 67 -36 149 37 111 99 -21 34
-50 22 -50 -22 0 -24 -10 -38 -25 -33 -15 5 -25 45 -25 105 0 60 10 100 25
105 14 5 25 -6 25 -23 0 -41 38 -42 53 -2 25 67 -76 119 -129 66z"/>
<path d="M4047 1535 l5 -165 76 -6 c64 -6 74 -1 68 30 -5 24 -21 34 -51 30
-59 -8 -63 67 -5 82 22 6 40 20 40 32 0 12 -18 22 -40 22 -27 0 -40 13 -40 40
0 29 13 40 50 40 31 0 50 11 50 30 0 22 -22 30 -79 30 l-79 0 5 -165z"/>
</g>
</svg>
