<?xml version="1.0" standalone="no"?>
<!DOCTYPE svg PUBLIC "-//W3C//DTD SVG 20010904//EN"
 "http://www.w3.org/TR/2001/REC-SVG-20010904/DTD/svg10.dtd">
<svg version="1.0" xmlns="http://www.w3.org/2000/svg"
 width="338.000000pt" height="338.000000pt" viewBox="0 0 338.000000 338.000000"
 preserveAspectRatio="xMidYMid meet">

<g transform="translate(0.000000,338.000000) scale(0.100000,-0.100000)"
fill="#000000" stroke="none">
<path d="M2235 2658 c-20 -64 -42 -159 -37 -162 14 -8 165 -46 169 -43 6 7 43
141 43 158 0 12 -21 22 -78 38 -92 25 -91 25 -97 9z"/>
<path d="M2460 2533 c-50 -64 29 -143 93 -93 20 16 27 31 27 54 0 66 -79 91
-120 39z m98 -42 c3 -25 -2 -33 -22 -42 -49 -23 -96 32 -63 73 30 39 80 21 85
-31z"/>
<path d="M2057 2468 c-9 -7 -19 -25 -22 -40 -5 -21 -1 -33 19 -52 14 -15 34
-26 46 -26 50 0 80 79 42 113 -22 20 -62 22 -85 5z m73 -18 c11 -11 20 -25 20
-32 0 -20 -32 -48 -55 -48 -46 0 -62 57 -23 84 29 20 34 20 58 -4z"/>
<path d="M2586 2414 c-20 -19 -20 -29 0 -48 18 -18 17 -18 38 -10 22 9 20 51
-3 64 -15 7 -23 6 -35 -6z m40 -15 c10 -17 -13 -36 -27 -22 -12 12 -4 33 11
33 5 0 12 -5 16 -11z"/>
<path d="M2394 2304 c-36 -53 -62 -99 -58 -103 26 -22 173 -121 181 -121 5 0
37 41 72 91 72 104 77 88 -46 172 l-82 57 -67 -96z"/>
<path d="M2052 2306 c-84 -24 -155 -45 -157 -47 -4 -5 82 -329 89 -336 5 -5
324 82 333 90 3 3 -14 79 -38 169 -31 113 -49 163 -59 165 -8 1 -84 -17 -168
-41z"/>
<path d="M1470 2111 c14 -3 26 -12 28 -20 2 -10 -5 -12 -30 -8 -26 5 -29 4
-15 -4 9 -6 32 -9 50 -7 24 2 33 8 35 26 3 20 0 22 -45 21 -35 -1 -41 -3 -23
-8z m55 -11 c-3 -5 -11 -10 -16 -10 -6 0 -7 5 -4 10 3 6 11 10 16 10 6 0 7 -4
4 -10z"/>
<path d="M2380 2025 c-14 -17 -5 -51 16 -59 22 -8 54 11 54 32 0 38 -46 56
-70 27z m48 -22 c-2 -10 -10 -18 -18 -18 -8 0 -16 8 -18 18 -2 12 3 17 18 17
15 0 20 -5 18 -17z"/>
<path d="M1845 2014 c-19 -20 -16 -43 8 -58 37 -23 77 35 41 61 -23 17 -29 16
-49 -3z m51 -15 c3 -6 0 -18 -9 -26 -18 -18 -37 -9 -37 18 0 21 34 27 46 8z"/>
<path d="M2377 1922 c-23 -26 -21 -75 3 -97 65 -59 162 33 100 95 -26 26 -81
26 -103 2z m81 -8 c30 -20 29 -59 -3 -80 -28 -18 -60 -11 -76 17 -13 26 -4 54
24 67 29 14 29 14 55 -4z"/>
<path d="M1558 1913 c-32 -5 -32 -5 -16 -50 l12 -33 261 0 c143 0 317 -3 388
-7 114 -5 127 -4 127 10 0 15 -23 17 -231 17 -216 0 -231 1 -224 18 23 55 30
52 -136 51 -85 -1 -166 -4 -181 -6z"/>
<path d="M1732 1782 l-132 -3 35 -46 c49 -64 62 -112 44 -159 -23 -62 -51 -75
-159 -76 -70 -1 -84 -3 -53 -8 40 -6 71 -20 44 -20 -7 0 -11 -10 -9 -22 2 -19
-3 -24 -32 -29 -19 -4 47 -7 148 -8 154 -1 182 -3 182 -16 0 -13 -28 -15 -187
-17 l-188 -1 180 -10 c125 -7 188 -6 208 1 26 10 29 8 38 -16 13 -34 55 -79
94 -100 45 -24 315 -31 334 -8 17 20 7 46 -17 46 -25 0 -44 23 -36 43 5 14 27
17 127 19 l122 3 0 25 c0 23 -4 25 -47 28 -49 3 -74 22 -65 47 5 11 30 15 119
17 l113 3 0 25 c0 24 -2 25 -83 28 -62 2 -84 7 -89 18 -9 25 16 43 65 46 43 3
47 5 47 28 0 24 -2 25 -83 28 -62 2 -84 7 -89 18 -12 31 16 43 105 46 85 3 87
3 87 28 l0 25 -119 3 c-66 1 -125 7 -131 12 -8 7 -27 5 -56 -3 -38 -12 -51
-12 -84 0 -28 10 -78 13 -170 11 -71 -2 -190 -4 -263 -6z m364 -267 c57 -37
75 -121 37 -173 -59 -81 -176 -75 -217 13 -21 43 -20 73 2 114 35 66 116 87
178 46z"/>
<path d="M2571 1646 c-18 -21 -2 -46 28 -46 36 0 53 18 40 42 -11 21 -52 24
-68 4z"/>
<path d="M1478 1473 c7 -3 16 -2 19 1 4 3 -2 6 -13 5 -11 0 -14 -3 -6 -6z"/>
<path d="M2510 1396 c-18 -22 5 -48 39 -44 20 2 26 9 26 28 0 19 -6 26 -26 28
-14 2 -31 -4 -39 -12z"/>
<path d="M2330 1275 c-10 -12 -10 -18 0 -30 10 -12 30 -15 89 -13 74 3 76 4
76 28 0 24 -2 25 -76 28 -59 2 -79 -1 -89 -13z"/>
<path d="M937 1123 c-4 -3 -7 -44 -7 -90 l0 -83 35 0 c43 0 55 20 55 89 0 38
-5 56 -20 71 -20 20 -50 26 -63 13z m51 -85 c-2 -38 -8 -63 -15 -66 -10 -3
-13 14 -13 62 0 53 3 66 15 66 13 0 15 -11 13 -62z"/>
<path d="M1047 1124 c-4 -4 -7 -45 -7 -91 l0 -83 40 0 c22 0 40 5 40 10 0 6
-11 10 -25 10 -20 0 -25 5 -25 25 0 16 6 25 15 25 8 0 15 7 15 15 0 8 -7 15
-15 15 -9 0 -15 9 -15 25 0 20 5 25 26 25 36 0 25 24 -12 28 -16 2 -33 0 -37
-4z"/>
<path d="M1140 1040 l0 -90 35 0 c39 0 48 17 13 22 -21 3 -23 9 -26 81 -4 108
-22 97 -22 -13z"/>
<path d="M1236 1123 c-3 -3 -6 -44 -6 -90 0 -67 3 -83 15 -83 12 0 15 16 15
84 0 78 -7 105 -24 89z"/>
<path d="M1288 1125 c-2 -3 2 -43 11 -90 12 -69 18 -85 32 -85 13 0 20 13 28
53 24 120 24 130 10 125 -8 -3 -18 -31 -25 -69 -10 -67 -16 -63 -29 18 -6 40
-16 58 -27 48z"/>
<path d="M1410 1040 l0 -90 35 0 c19 0 35 5 35 10 0 6 -12 10 -26 10 -22 0
-25 4 -22 28 2 15 9 27 17 27 8 0 16 6 19 13 2 7 -5 12 -17 12 -16 0 -21 6
-21 25 0 20 5 25 25 25 16 0 25 6 25 15 0 10 -11 15 -35 15 l-35 0 0 -90z"/>
<path d="M1507 1124 c-4 -4 -7 -45 -7 -91 0 -67 3 -83 15 -83 10 0 15 11 15
35 0 19 4 35 10 35 5 0 12 -16 16 -35 3 -20 12 -35 20 -35 17 0 17 5 5 47 -6
20 -6 35 0 38 11 7 12 55 1 72 -10 15 -64 28 -75 17z m53 -54 c0 -20 -5 -30
-15 -30 -10 0 -15 10 -15 30 0 20 5 30 15 30 10 0 15 -10 15 -30z"/>
<path d="M1610 1116 c0 -7 7 -33 15 -56 8 -23 15 -58 15 -76 0 -19 5 -34 10
-34 6 0 10 16 10 35 0 19 9 57 20 84 12 32 16 52 9 57 -5 3 -15 -8 -22 -25
-14 -39 -23 -39 -30 -1 -6 30 -27 42 -27 16z"/>
<path d="M1812 1118 c-20 -20 -14 -48 18 -85 17 -18 30 -38 30 -43 0 -18 -23
-22 -36 -6 -14 20 -27 6 -18 -19 5 -11 16 -15 38 -13 45 4 48 46 6 94 -25 29
-29 39 -19 50 9 11 15 12 26 3 18 -16 29 -3 13 16 -15 18 -41 20 -58 3z"/>
<path d="M1910 1041 l0 -91 35 0 c39 0 48 17 13 22 -31 4 -39 48 -9 48 12 0
21 6 21 15 0 8 -9 15 -20 15 -15 0 -20 7 -20 24 0 19 6 25 28 28 40 4 33 23
-10 26 l-38 3 0 -90z"/>
<path d="M2010 1040 c0 -53 4 -90 10 -90 6 0 10 13 10 29 0 42 18 48 28 10 15
-60 27 -41 27 41 0 86 -7 100 -52 100 -22 0 -23 -3 -23 -90z m53 48 c6 -21 -4
-48 -19 -48 -9 0 -14 11 -14 30 0 30 24 43 33 18z"/>
<path d="M2110 1123 c0 -4 7 -43 15 -86 8 -43 15 -81 15 -83 0 -2 8 -4 19 -4
15 0 21 14 33 83 8 45 13 85 11 90 -9 17 -22 -6 -28 -51 -11 -77 -18 -81 -29
-13 -6 35 -17 66 -23 69 -7 2 -13 0 -13 -5z"/>
<path d="M2237 1123 c-3 -5 -4 -45 -4 -90 1 -60 5 -83 14 -83 10 0 13 23 13
84 0 75 -10 111 -23 89z"/>
<path d="M2301 1116 c-7 -9 -11 -42 -9 -88 3 -68 5 -73 26 -76 13 -2 30 2 38
8 19 16 18 50 -1 50 -9 0 -15 -9 -15 -21 0 -12 -5 -19 -12 -17 -8 3 -14 28
-16 66 -2 51 0 62 13 62 8 0 15 -7 15 -15 0 -8 7 -15 15 -15 22 0 18 37 -4 50
-26 13 -36 13 -50 -4z"/>
<path d="M2397 1123 c-4 -3 -7 -44 -7 -90 l0 -83 40 0 c22 0 40 5 40 10 0 6
-11 10 -25 10 -20 0 -25 5 -25 24 0 15 7 26 20 29 11 3 20 10 20 16 0 6 -9 11
-20 11 -15 0 -20 7 -20 25 0 20 5 25 25 25 16 0 25 6 25 15 0 10 -10 15 -33
15 -19 0 -37 -3 -40 -7z"/>
<path d="M1674 141 c-16 -13 -19 -22 -13 -40 13 -33 60 -26 70 12 7 27 -5 39
-14 15 -3 -8 -6 -7 -6 4 -1 25 -14 28 -37 9z m12 -28 c-10 -10 -19 5 -10 18 6
11 8 11 12 0 2 -7 1 -15 -2 -18z"/>
<path d="M1206 127 c-26 -19 -15 -52 12 -38 13 7 22 7 30 -1 8 -8 9 -5 5 10
-4 17 -1 20 16 15 11 -3 19 -8 18 -12 -2 -7 7 -11 28 -11 8 0 15 8 14 18 0 9
-3 12 -5 5 -3 -7 -12 -9 -20 -6 -12 4 -13 8 -4 13 7 5 0 7 -16 6 -16 -1 -34
-5 -41 -9 -7 -4 -13 -1 -15 8 -3 14 -5 14 -22 2z m14 -16 c0 -6 -4 -13 -10
-16 -5 -3 -10 1 -10 9 0 9 5 16 10 16 6 0 10 -4 10 -9z"/>
<path d="M1497 129 c-9 -6 -26 -7 -37 -4 -12 4 -20 2 -20 -6 0 -9 -3 -9 -14 0
-12 10 -13 8 -9 -9 3 -11 8 -18 11 -15 3 2 11 0 18 -6 9 -8 11 -5 7 10 -7 27
1 27 26 0 l20 -21 -6 21 c-3 11 -1 21 5 21 6 0 13 -8 15 -17 3 -11 5 -7 6 10
0 15 0 27 -1 27 -2 0 -11 -5 -21 -11z"/>
<path d="M1545 115 c0 -14 3 -25 8 -25 4 0 7 7 7 16 0 8 4 13 10 9 5 -3 6 -13
3 -23 -5 -14 -2 -13 11 3 17 20 17 20 13 -2 -7 -31 7 -29 21 3 7 14 8 23 2 19
-5 -3 -23 1 -39 10 -38 19 -36 20 -36 -10z"/>
<path d="M1761 113 c0 -25 1 -26 9 -8 12 27 12 35 0 35 -5 0 -10 -12 -9 -27z"/>
<path d="M1347 123 c-10 -9 -9 -33 1 -33 4 0 8 9 8 20 0 23 0 22 -9 13z"/>
<path d="M1368 100 c-3 -17 -1 -30 4 -30 4 0 8 14 8 30 0 17 -2 30 -4 30 -2 0
-6 -14 -8 -30z"/>
<path d="M1791 107 c1 -17 2 -18 6 -4 4 16 6 15 23 -5 l19 -23 -6 24 c-5 19
-3 22 8 16 8 -5 11 -4 7 0 -5 5 -19 10 -33 11 -20 2 -25 -2 -24 -19z"/>
<path d="M1863 115 c-3 -9 -3 -19 1 -22 3 -4 6 2 6 11 0 12 5 16 16 12 8 -3
12 -2 9 4 -9 15 -25 12 -32 -5z"/>
<path d="M1911 98 c2 -31 2 -31 6 -5 2 15 8 25 13 22 5 -3 7 -12 3 -20 -4 -11
-1 -13 11 -9 21 8 21 30 0 38 -28 11 -34 6 -33 -26z"/>
<path d="M1986 114 c-20 -19 -20 -20 2 -20 10 0 18 8 18 18 0 22 -1 22 -20 2z"/>
<path d="M2043 113 c-9 -22 13 -39 31 -24 10 9 16 9 21 1 5 -8 11 -8 19 -1 7
6 16 8 19 4 4 -3 7 1 7 10 0 23 20 22 21 0 0 -15 2 -15 8 2 l8 20 5 -20 c5
-19 6 -19 7 1 1 17 -5 22 -24 22 -14 0 -28 -5 -31 -9 -3 -5 -11 -6 -17 -2 -22
14 -68 11 -74 -4z m29 -8 c0 -5 -5 -11 -11 -13 -6 -2 -11 4 -11 13 0 9 5 15
11 13 6 -2 11 -8 11 -13z m42 -6 c-3 -5 -10 -7 -15 -3 -5 3 -7 10 -3 15 3 5
10 7 15 3 5 -3 7 -10 3 -15z"/>
<path d="M1391 104 c0 -11 3 -14 6 -6 3 7 2 16 -1 19 -3 4 -6 -2 -5 -13z"/>
</g>
</svg>
