<?xml version="1.0" standalone="no"?>
<!DOCTYPE svg PUBLIC "-//W3C//DTD SVG 20010904//EN"
 "http://www.w3.org/TR/2001/REC-SVG-20010904/DTD/svg10.dtd">
<svg version="1.0" xmlns="http://www.w3.org/2000/svg"
 width="438.000000pt" height="900.000000pt" viewBox="0 0 438.000000 900.000000"
 preserveAspectRatio="xMidYMid meet">
<metadata>
Created by potrace 1.10, written by Peter Selinger 2001-2011
</metadata>
<g transform="translate(0.000000,900.000000) scale(0.100000,-0.100000)"
fill="#5f1e9d" stroke="none">
<path d="M380 8986 c0 -8 -9 -18 -21 -21 -52 -17 -144 -83 -204 -147 -67 -70
-119 -163 -144 -254 -8 -30 -11 -1130 -11 -4051 l0 -4010 21 -64 c62 -193 222
-345 418 -399 69 -19 113 -20 1728 -20 1601 0 1660 1 1725 19 134 38 249 114
324 215 58 76 76 113 103 202 l21 71 0 3990 c0 3585 -2 3995 -16 4044 -50 176
-171 321 -325 391 -27 13 -49 29 -49 35 0 10 -359 13 -1785 13 -1543 0 -1785
-2 -1785 -14z m1859 -391 c17 -20 31 -47 31 -60 0 -114 -152 -144 -196 -38
-27 63 24 133 97 133 30 0 43 -7 68 -35z m279 -371 c26 -18 28 -31 5 -56 -15
-17 -39 -18 -351 -18 -298 0 -337 2 -354 17 -22 20 -23 31 -1 55 15 17 39 18
347 18 284 0 335 -2 354 -16z m1440 -626 c9 -9 12 -719 12 -3135 0 -3077 0
-3122 -19 -3133 -30 -16 -3553 -14 -3569 2 -9 9 -12 720 -12 3138 0 1720 3
3130 7 3133 3 4 808 7 1788 7 1372 0 1784 -3 1793 -12z m-1614 -6557 c67 -33
156 -118 191 -183 53 -96 60 -242 18 -343 -30 -70 -99 -151 -161 -188 -92 -55
-118 -62 -227 -62 -91 0 -106 3 -165 31 -321 153 -327 582 -10 741 64 32 67
33 185 30 103 -2 127 -6 169 -26z"/>
</g>
</svg>
