<?xml version="1.0" standalone="no"?>
<!DOCTYPE svg PUBLIC "-//W3C//DTD SVG 20010904//EN"
 "http://www.w3.org/TR/2001/REC-SVG-20010904/DTD/svg10.dtd">
<svg version="1.0" xmlns="http://www.w3.org/2000/svg"
 width="182.000000pt" height="179.000000pt" viewBox="0 0 182.000000 179.000000"
 preserveAspectRatio="xMidYMid meet">
<metadata>
Created by potrace 1.10, written by Peter Selinger 2001-2011
</metadata>
<g transform="translate(0.000000,179.000000) scale(0.050000,-0.050000)"
fill="#5f1e9d" stroke="none">
<path d="M2810 3493 c-26 -81 -90 -339 -86 -344 17 -17 343 -89 353 -79 12 12
103 337 96 343 -32 26 -358 98 -363 80z"/>
<path d="M3269 3251 c-113 -114 9 -296 160 -239 18 7 46 40 63 72 76 147 -107
283 -223 167z m167 -35 c61 -61 -13 -189 -93 -162 -40 14 -83 65 -83 98 0 70
125 115 176 64z"/>
<path d="M2454 3100 c-70 -56 -75 -163 -10 -209 134 -94 304 64 201 186 -54
64 -128 72 -191 23z m142 -44 c33 -33 30 -106 -6 -136 -40 -33 -124 -9 -140
39 -28 89 81 162 146 97z"/>
<path d="M3504 2996 c-50 -50 -13 -136 59 -136 30 0 77 53 77 87 0 52 -98 87
-136 49z"/>
<path d="M3130 2777 c-66 -100 -123 -189 -126 -198 -6 -14 377 -286 386 -275
30 39 250 377 250 384 0 9 -371 272 -384 272 -3 0 -60 -83 -126 -183z m230
-93 c0 -25 -61 -104 -81 -104 -19 0 -4 55 27 95 21 28 54 34 54 9z"/>
<path d="M2777 2870 c-5 -5 -157 -49 -338 -97 -237 -64 -327 -96 -322 -116 4
-15 37 -135 74 -267 37 -132 76 -277 88 -322 l21 -82 165 48 c91 26 246 69
345 95 152 39 179 52 173 84 -4 20 -42 165 -85 321 -43 156 -78 298 -78 315 0
30 -23 41 -43 21z m-243 -257 c-6 -15 -2 -39 8 -55 13 -20 17 -13 18 27 0 36
11 55 31 55 17 0 26 -9 19 -20 -7 -11 1 -14 19 -8 19 7 36 -2 44 -23 13 -32
15 -32 42 3 26 34 27 30 15 -48 -9 -56 -5 -95 10 -114 34 -41 8 -137 -32 -122
-16 6 -25 4 -19 -6 8 -14 -60 -39 -135 -50 -8 -1 -22 -12 -30 -25 -23 -37
-148 81 -155 146 -4 31 0 65 8 76 8 12 17 48 21 81 8 76 14 82 53 49 34 -28
79 8 57 45 -6 9 0 16 13 16 13 0 19 -12 13 -27z"/>
<path d="M781 2551 c-71 -185 -49 -250 82 -251 86 0 103 -28 64 -105 l-28 -55
98 0 c96 0 99 2 131 80 17 44 43 81 57 82 14 1 74 4 135 5 90 2 110 10 117 41
14 71 -149 102 -228 43 -56 -43 -63 -40 -119 48 -93 149 -271 213 -309 112z"/>
<path d="M3135 2245 c-45 -10 -67 -96 -35 -135 51 -62 140 -21 140 63 0 50
-50 84 -105 72z m65 -74 c0 -39 -39 -60 -64 -35 -11 11 -14 30 -7 42 20 32 71
27 71 -7z"/>
<path d="M2024 2196 c-66 -66 12 -181 94 -137 53 28 64 70 29 119 -33 47 -86
55 -123 18z m92 -63 c5 -22 -7 -33 -35 -33 -22 0 -41 12 -41 27 0 61 65 67 76
6z"/>
<path d="M781 1923 c-50 -101 -93 -162 -119 -168 -22 -6 -56 -43 -75 -82 -33
-71 -35 -71 -157 -71 -149 2 -244 -35 -316 -121 -73 -86 -69 -97 41 -111 52
-7 103 -15 114 -18 10 -2 -13 -24 -51 -47 -165 -102 -214 -345 -105 -520 207
-334 713 -185 715 210 1 93 5 105 43 105 48 0 149 -97 149 -144 0 -72 45 -78
532 -75 l475 3 37 -72 c79 -154 160 -182 524 -182 l322 0 0 50 c0 36 -12 52
-44 56 -55 8 -90 50 -74 91 10 26 54 33 255 37 l243 6 0 50 c0 46 -9 51 -110
60 -101 9 -110 14 -110 60 l0 50 223 6 c339 8 390 117 60 128 -151 6 -163 9
-169 50 -7 48 21 60 156 71 60 4 70 12 70 55 0 49 -4 50 -166 56 -284 10 -256
119 33 128 170 6 173 7 173 56 l0 50 -230 5 c-126 3 -248 14 -270 26 -29 15
-62 13 -120 -7 -67 -24 -90 -24 -145 -1 -51 22 -187 26 -617 22 l-552 -5 64
-80 c228 -285 148 -490 -190 -490 -394 0 -607 393 -414 765 l80 155 -98 0 -98
0 -79 -157z m1424 -378 c9 21 45 30 136 30 81 1 115 -5 97 -17 -15 -9 -19 -18
-7 -18 12 0 31 10 44 23 34 34 165 3 165 -39 0 -19 7 -25 15 -14 23 30 93 24
109 -10 12 -26 13 -26 15 1 2 51 80 42 105 -12 12 -27 30 -49 40 -49 62 0 100
-79 86 -178 -7 -56 -22 -97 -32 -91 -10 6 -18 -3 -18 -20 0 -27 -10 -33 -51
-30 -6 0 -28 -20 -49 -45 -36 -45 -37 -45 -52 -6 -9 22 -28 52 -42 66 -14 15
-26 46 -26 70 -1 29 -6 36 -16 20 -11 -17 -33 2 -70 59 -30 45 -54 70 -55 54
0 -17 -11 -11 -26 16 -18 33 -31 39 -47 23 -14 -14 -34 -15 -59 -3 -20 11 -50
15 -65 10 -18 -7 -22 -2 -12 14 12 20 5 20 -29 1 -24 -12 -57 -18 -74 -12 -16
6 -24 3 -18 -7 16 -25 -19 -43 -87 -45 -39 -1 -56 -12 -54 -34 1 -18 -11 -29
-26 -26 -24 5 -24 1 -2 -25 22 -28 17 -35 -39 -57 -53 -20 -63 -33 -56 -76 4
-32 -2 -51 -18 -51 -14 0 -21 7 -15 16 6 10 3 18 -6 18 -146 12 -207 33 -151
53 14 5 25 22 25 38 0 15 -11 29 -25 30 -20 1 -20 3 0 11 14 6 25 22 25 37 0
15 10 30 23 34 16 6 22 55 19 146 -4 118 0 134 25 113 23 -20 31 -19 38 1 7
20 16 20 46 -4 33 -27 35 -27 19 0 -15 26 -13 26 16 3 22 -18 34 -20 34 -5 0
36 56 25 66 -13 6 -21 11 -11 13 25 l4 60 26 -57 c18 -42 28 -49 36 -28z
m-1516 -24 c7 -11 26 -14 42 -8 22 9 26 2 16 -26 -7 -20 -6 -30 3 -22 18 16
81 -61 64 -78 -6 -6 7 -28 28 -49 43 -43 53 -127 13 -112 -14 5 -23 19 -20 32
3 12 -4 22 -15 22 -11 0 -20 -9 -20 -20 0 -36 -77 -21 -89 17 -12 38 -98 91
-151 92 -16 1 -33 21 -36 46 -6 42 21 58 83 47 9 -2 21 15 27 37 11 44 36 53
55 22z m-134 -303 c149 -56 163 -330 21 -422 -246 -159 -513 139 -324 362 78
94 166 111 303 60z m1985 -37 c104 -73 131 -221 60 -336 -71 -117 -251 -144
-357 -54 -242 203 38 571 297 390z m-600 -231 c0 -34 -807 -46 -828 -13 -23
38 30 43 421 43 348 0 407 -4 407 -30z"/>
<path d="M3127 2037 c-103 -51 -100 -206 5 -254 70 -32 95 -29 155 18 133 105
-7 311 -160 236z m154 -80 c35 -65 -5 -137 -77 -137 -67 0 -104 32 -104 90 0
93 138 129 181 47z"/>
<path d="M1745 2005 c-201 -3 -365 -12 -365 -20 0 -7 14 -50 31 -94 l31 -81
779 -6 779 -6 0 42 c0 43 -2 43 -450 36 -248 -3 -450 0 -450 8 0 7 9 36 19 64
25 66 46 63 -374 57z"/>
<path d="M3480 1450 c-40 -48 -9 -90 67 -90 45 0 73 11 81 33 28 73 -95 121
-148 57z"/>
<path d="M3350 960 c-27 -44 12 -100 69 -100 65 0 107 41 89 87 -14 37 -137
47 -158 13z"/>
<path d="M2987 710 c-27 -72 6 -90 170 -90 173 0 233 30 183 90 -18 22 -67 30
-183 30 -122 0 -161 -7 -170 -30z"/>
<path d="M200 230 c0 -209 24 -237 136 -159 108 76 47 349 -77 349 l-59 0 0
-190z m110 0 c0 -76 -9 -120 -25 -125 -18 -6 -25 27 -25 125 0 98 7 131 25
125 16 -5 25 -49 25 -125z"/>
<path d="M424 235 l6 -185 68 0 c38 0 72 11 77 25 5 16 -11 25 -43 25 -66 0
-76 89 -12 106 22 6 40 20 40 32 0 12 -18 22 -40 22 -29 0 -40 13 -40 50 0 40
10 50 50 50 31 0 50 11 50 30 0 22 -22 30 -81 30 l-81 0 6 -185z"/>
<path d="M620 230 l0 -190 71 0 c58 0 71 7 65 35 -4 20 -22 33 -42 29 -30 -5
-34 14 -34 155 0 130 -6 161 -30 161 -25 0 -30 -34 -30 -190z"/>
<path d="M800 230 c0 -156 5 -190 30 -190 25 0 30 34 30 190 0 156 -5 190 -30
190 -25 0 -30 -34 -30 -190z"/>
<path d="M907 365 c6 -30 22 -112 35 -182 37 -207 91 -198 130 22 34 188 34
215 1 215 -18 0 -34 -42 -47 -125 -19 -130 -28 -123 -56 50 -8 50 -22 75 -43
75 -24 0 -29 -13 -20 -55z"/>
<path d="M1159 411 c0 -6 -1 -90 -2 -186 l-1 -175 77 0 c55 0 77 9 77 30 0 18
-19 29 -50 30 -36 0 -52 12 -56 45 -5 34 3 45 35 45 54 0 53 52 -1 66 -62 16
-41 82 28 90 80 10 56 53 -33 60 -40 4 -73 1 -74 -5z"/>
<path d="M1344 237 c6 -183 56 -298 56 -129 0 90 28 93 53 7 10 -36 32 -65 48
-65 16 0 25 13 20 30 -5 17 -8 88 -6 159 4 150 -15 181 -108 181 l-69 0 6
-183z m116 63 c0 -40 -10 -60 -30 -60 -20 0 -30 20 -30 60 0 40 10 60 30 60
20 0 30 -20 30 -60z"/>
<path d="M1540 411 c0 -5 19 -57 41 -114 23 -58 39 -137 35 -176 -11 -128 52
-91 66 39 6 61 22 135 35 166 30 74 29 94 -6 94 -17 0 -38 -29 -48 -65 -18
-66 -22 -63 -52 35 -9 26 -71 45 -71 21z"/>
<path d="M1965 397 c-44 -44 -28 -122 39 -191 51 -53 59 -71 39 -91 -20 -20
-29 -18 -45 10 -20 35 -78 49 -78 19 0 -36 65 -104 101 -104 101 0 114 124 21
208 -23 21 -42 55 -42 75 0 40 30 50 50 17 23 -37 53 -21 46 25 -7 52 -91 72
-131 32z"/>
<path d="M2164 235 l6 -185 68 0 c38 0 72 11 77 25 5 16 -11 25 -43 25 -42 0
-52 10 -52 50 0 31 11 50 30 50 17 0 30 14 30 30 0 17 -13 30 -30 30 -19 0
-30 19 -30 50 0 40 10 50 50 50 31 0 50 11 50 30 0 22 -22 30 -81 30 l-81 0 6
-185z"/>
<path d="M2344 237 c6 -183 56 -298 56 -129 0 90 33 94 56 7 9 -36 29 -65 45
-65 17 0 25 13 20 30 -5 17 -8 88 -6 159 4 150 -15 181 -108 181 l-69 0 6
-183z m116 63 c0 -40 -10 -60 -30 -60 -20 0 -30 20 -30 60 0 40 10 60 30 60
20 0 30 -20 30 -60z"/>
<path d="M2560 395 c0 -14 14 -96 30 -182 17 -86 30 -160 30 -165 0 -4 17 -8
37 -8 32 0 103 253 103 368 0 65 -60 -6 -70 -83 -23 -173 -43 -187 -59 -40
-12 117 -71 208 -71 110z"/>
<path d="M2800 230 c0 -156 5 -190 30 -190 25 0 30 34 30 190 0 156 -5 190
-30 190 -25 0 -30 -34 -30 -190z"/>
<path d="M2931 389 c-94 -95 -10 -383 97 -334 58 27 76 125 22 125 -17 0 -30
-18 -30 -42 0 -24 -10 -38 -25 -33 -32 11 -35 238 -3 249 13 4 28 -11 34 -33
14 -56 54 -52 54 5 0 88 -87 124 -149 63z"/>
<path d="M3124 235 l6 -185 75 -6 c65 -6 75 -1 75 36 0 33 -10 41 -45 36 -34
-4 -47 5 -51 39 -5 34 3 45 35 45 23 0 41 13 41 30 0 17 -18 30 -40 30 -29 0
-40 13 -40 50 0 40 10 50 50 50 31 0 50 11 50 30 0 22 -22 30 -81 30 l-81 0 6
-185z"/>
</g>
</svg>
