<?xml version="1.0" standalone="no"?>
<!DOCTYPE svg PUBLIC "-//W3C//DTD SVG 20010904//EN"
 "http://www.w3.org/TR/2001/REC-SVG-20010904/DTD/svg10.dtd">
<svg version="1.0" xmlns="http://www.w3.org/2000/svg"
 width="300.000000pt" height="300.000000pt" viewBox="0 0 300.000000 300.000000"
 preserveAspectRatio="xMidYMid meet">
<metadata>
Created by potrace 1.10, written by Peter Selinger 2001-2011
</metadata>
<g transform="translate(0.000000,300.000000) scale(0.100000,-0.100000)"
fill="#000000" stroke="none">
<path d="M1966 2303 c-10 -38 -20 -73 -22 -78 -2 -6 28 -19 68 -29 40 -10 78
-20 83 -22 8 -4 19 30 47 145 3 11 -111 50 -147 51 -6 0 -19 -30 -29 -67z
m112 26 c23 -7 42 -15 42 -19 0 -9 -30 -110 -33 -110 -1 0 -23 7 -50 15 -26 8
-51 15 -55 16 -4 0 -5 6 -3 13 2 6 3 18 3 26 0 8 4 30 10 48 7 24 14 31 26 28
10 -3 36 -10 60 -17z"/>
<path d="M2192 2264 c-30 -21 -30 -77 0 -98 48 -34 98 -7 98 52 0 32 -29 62
-60 62 -9 0 -26 -7 -38 -16z m72 -26 c13 -19 14 -25 2 -43 -7 -11 -24 -20 -36
-20 -12 0 -29 9 -36 20 -12 18 -11 24 2 43 8 12 24 22 34 22 10 0 26 -10 34
-22z"/>
<path d="M1826 2189 c-34 -27 -32 -64 5 -91 20 -15 30 -17 51 -9 48 18 50 88
3 109 -32 15 -28 16 -59 -9z m55 -9 c23 -13 25 -52 4 -70 -12 -10 -21 -10 -40
-2 -30 14 -34 56 -7 71 21 13 20 13 43 1z"/>
<path d="M2295 2146 c-12 -9 -15 -19 -10 -35 9 -30 59 -26 63 6 4 29 -28 47
-53 29z m30 -36 c-5 -8 -11 -8 -17 -2 -6 6 -7 16 -3 22 5 8 11 8 17 2 6 -6 7
-16 3 -22z"/>
<path d="M2126 2047 c-31 -45 -56 -85 -56 -88 0 -7 169 -123 173 -118 53 75
108 172 101 178 -9 8 -129 90 -150 104 -7 4 -34 -26 -68 -76z m153 -8 c30 -22
49 -39 43 -39 -7 0 -12 -4 -12 -9 0 -19 -55 -91 -66 -87 -8 3 -10 -3 -6 -16 3
-11 1 -19 -4 -17 -26 12 -79 47 -105 69 l-29 25 36 58 c26 41 41 57 52 52 13
-5 13 -3 1 11 -13 16 -12 16 11 4 14 -7 49 -30 79 -51z"/>
<path d="M1819 2048 l-146 -41 42 -148 c22 -81 43 -150 46 -153 3 -3 72 14
154 37 l150 42 -41 149 c-22 83 -44 151 -50 152 -5 1 -75 -16 -155 -38z m160
-25 c6 -21 12 -47 14 -58 2 -11 7 -27 10 -35 3 -8 13 -39 22 -69 21 -64 23
-61 -89 -91 -45 -11 -93 -25 -107 -29 -38 -12 -69 3 -62 30 4 15 3 20 -5 15
-7 -4 -13 0 -13 11 -1 10 -4 29 -6 43 -2 14 -5 35 -6 47 -1 11 -5 19 -8 17 -4
-2 -9 9 -12 24 -3 15 -8 34 -12 43 -5 14 7 21 61 39 36 12 77 23 90 23 13 0
21 3 19 8 -5 7 23 14 72 18 18 1 24 -7 32 -36z"/>
<path d="M1079 1932 c-6 -21 -9 -49 -7 -62 2 -21 9 -26 41 -28 40 -3 58 -25
38 -45 -21 -21 -11 -33 29 -32 33 0 41 4 51 27 17 42 36 52 88 49 35 -2 50 2
54 13 13 34 -29 42 -113 21 -21 -5 -28 -1 -42 24 -19 35 -73 71 -105 71 -17 0
-25 -9 -34 -38z m74 6 c15 -7 27 -16 27 -19 0 -4 13 -21 29 -39 26 -31 27 -34
14 -61 -16 -31 -33 -47 -33 -29 0 6 -5 8 -11 4 -7 -4 -9 0 -5 13 8 26 -13 51
-49 56 -34 4 -44 31 -25 66 13 24 17 25 53 9z"/>
<path d="M2110 1795 c-10 -12 -11 -21 -3 -33 14 -23 34 -26 58 -8 16 12 18 18
9 33 -15 24 -47 28 -64 8z m46 -6 c10 -17 -13 -36 -27 -22 -12 12 -4 33 11 33
5 0 12 -5 16 -11z"/>
<path d="M1629 1784 c-17 -21 0 -48 34 -52 18 -2 27 2 32 18 13 41 -38 68 -66
34z m51 -18 c0 -20 -19 -31 -32 -18 -6 6 -7 15 -4 21 10 16 36 13 36 -3z"/>
<path d="M1086 1671 c-22 -43 -43 -70 -56 -74 -11 -3 -26 -20 -34 -38 -13 -31
-16 -33 -60 -30 -64 4 -109 -14 -147 -57 -29 -33 -30 -36 -13 -43 24 -10 100
-11 90 -2 -4 4 -19 9 -34 11 -35 4 -37 7 -18 34 9 12 16 19 16 14 0 -5 6 -3
14 3 13 11 47 17 132 23 25 1 34 7 34 19 0 20 66 85 81 81 6 -1 8 2 4 8 -9 15
32 100 48 100 25 0 25 -11 0 -56 -36 -63 -34 -141 3 -220 52 -109 109 -140
238 -131 87 6 117 31 123 104 5 47 -15 114 -37 128 -33 20 8 25 213 25 172 0
227 -3 242 -14 15 -11 26 -11 60 0 26 7 47 9 56 3 8 -5 37 -9 64 -9 43 -1 47
-3 25 -11 -37 -15 -59 -39 -53 -57 10 -31 36 -42 97 -44 40 -1 49 -3 26 -5
-65 -8 -91 -56 -47 -86 l22 -16 -30 -2 c-16 -1 -35 -2 -42 -2 -6 0 -17 -13
-24 -29 -11 -28 -10 -32 12 -48 13 -10 21 -21 19 -24 -3 -2 -37 -6 -77 -7 -39
-2 -70 -7 -67 -10 2 -4 0 -10 -5 -13 -10 -7 -3 -44 11 -63 14 -18 -3 -22 -86
-21 -68 0 -93 6 -54 12 7 1 19 5 26 9 6 5 17 5 22 2 6 -4 9 -3 8 2 -3 10 27
55 33 49 10 -10 9 83 -2 115 -22 70 -119 100 -189 58 -37 -23 -52 -42 -57 -73
-2 -11 -5 -22 -7 -24 -2 -2 0 -17 4 -33 10 -33 1 -38 -18 -9 -7 11 -19 20 -27
20 -8 0 -15 7 -15 15 0 12 -29 15 -177 17 -98 2 -189 -1 -202 -7 -20 -8 -27
-5 -50 23 -42 51 -104 40 -94 -18 4 -28 -21 -96 -45 -123 -22 -25 -73 -45
-103 -41 -13 2 -36 5 -51 7 -32 5 -51 19 -78 57 -23 32 -38 130 -21 130 6 0
10 3 10 8 -3 20 4 33 38 66 43 42 30 49 -18 9 -78 -66 -79 -189 -1 -255 117
-98 286 -22 286 127 0 48 2 51 22 47 27 -5 61 -40 66 -67 3 -19 11 -20 225
-20 219 0 222 0 227 -21 8 -32 70 -82 116 -94 22 -6 90 -9 152 -8 l113 3 0 25
c0 17 -6 25 -17 25 -28 0 -43 21 -28 40 10 12 35 15 116 15 l104 0 0 25 c0 23
-4 25 -44 25 -51 0 -76 20 -56 45 10 13 27 14 86 9 93 -9 126 -1 122 29 -3 20
-10 22 -78 27 -67 4 -75 7 -75 25 0 17 8 21 50 25 42 4 50 8 50 25 0 18 -8 20
-72 23 -78 3 -106 19 -83 47 9 11 33 15 91 15 78 0 79 0 79 25 l0 25 -109 0
c-69 0 -111 4 -113 11 -2 7 -17 7 -50 -1 -35 -9 -55 -9 -79 -1 -20 7 -122 11
-271 11 l-239 0 42 -59 c46 -65 54 -112 25 -155 -24 -37 -59 -48 -143 -44 -90
4 -117 22 -161 108 -30 58 -33 72 -30 131 3 54 10 77 35 118 l32 51 -44 0 -45
0 -34 -69z m1117 -128 c-7 -2 -19 -2 -25 0 -7 3 -2 5 12 5 14 0 19 -2 13 -5z
m44 1 c-3 -3 -12 -4 -19 -1 -8 3 -5 6 6 6 11 1 17 -2 13 -5z m-371 -218 c46
-46 48 -101 5 -148 -26 -29 -35 -33 -81 -33 -46 0 -55 4 -81 33 -43 47 -41
102 5 148 28 28 42 34 76 34 34 0 48 -6 76 -34z m-278 -87 c-2 -6 -7 -10 -11
-10 -4 1 -86 1 -182 1 -110 0 -175 4 -175 10 0 6 69 10 186 10 128 0 185 -3
182 -11z m555 -16 c-7 -2 -19 -2 -25 0 -7 3 -2 5 12 5 14 0 19 -2 13 -5z
m-443 -63 c0 -5 -5 -10 -11 -10 -5 0 -7 5 -4 10 3 6 8 10 11 10 2 0 4 -4 4
-10z"/>
<path d="M2116 1709 c-31 -25 -34 -61 -6 -89 39 -39 110 -11 110 44 0 25 -41
66 -65 66 -7 0 -24 -9 -39 -21z m65 -9 c37 -20 18 -80 -26 -80 -43 0 -63 58
-27 79 22 13 29 13 53 1z"/>
<path d="M1402 1703 c-43 -3 -53 -7 -48 -19 3 -9 9 -27 12 -40 l6 -24 349 -2
c331 -3 349 -2 349 15 0 17 -13 18 -205 15 -179 -3 -204 -1 -199 12 22 52 25
50 -97 48 -63 -1 -138 -3 -167 -5z m242 -22 c4 -5 3 -17 0 -25 -6 -14 -24 -17
-129 -15 -111 1 -124 3 -128 20 -4 15 2 19 42 22 98 8 210 7 215 -2z"/>
<path d="M2277 1457 c-9 -23 9 -39 39 -35 21 2 29 8 29 23 0 15 -8 21 -31 23
-20 2 -33 -2 -37 -11z"/>
<path d="M920 1389 c-90 -17 -117 -48 -121 -141 -3 -55 49 -105 122 -118 32
-6 44 -3 70 16 18 13 36 21 41 18 5 -3 7 -2 6 3 -1 4 3 17 9 28 11 19 10 88 0
130 -3 11 -6 25 -6 30 -1 6 -5 4 -9 -3 -7 -9 -13 -8 -27 8 -10 11 -24 20 -31
20 -7 0 -14 4 -16 8 -1 4 -19 5 -38 1z m86 -53 c28 -28 34 -42 34 -76 0 -34
-6 -48 -34 -76 -28 -28 -42 -34 -76 -34 -34 0 -48 6 -76 34 -28 28 -34 42 -34
76 0 34 6 48 34 76 28 28 42 34 76 34 34 0 48 -6 76 -34z"/>
<path d="M2224 1235 c-9 -22 4 -35 36 -35 28 0 41 14 33 38 -6 17 -62 15 -69
-3z"/>
<path d="M2068 1133 c-6 -7 -8 -20 -4 -28 5 -13 20 -15 78 -13 70 3 73 4 73
27 0 24 -3 25 -68 25 -43 1 -72 -4 -79 -11z m70 -20 c-10 -2 -28 -2 -40 0 -13
2 -5 4 17 4 22 1 32 -1 23 -4z m49 1 c-3 -3 -12 -4 -19 -1 -8 3 -5 6 6 6 11 1
17 -2 13 -5z"/>
<path d="M825 920 l0 -81 35 3 35 3 0 75 0 75 -35 3 -35 3 0 -81z m50 0 c0
-34 -5 -55 -12 -57 -10 -4 -13 12 -13 57 0 45 3 61 13 58 7 -3 12 -24 12 -58z"/>
<path d="M920 920 l0 -80 35 0 c23 0 35 5 35 14 0 9 -7 12 -20 9 -16 -4 -20 0
-20 21 0 16 5 26 15 26 8 0 15 5 15 10 0 6 -7 10 -15 10 -10 0 -15 10 -15 26
0 21 4 25 20 21 13 -3 20 0 20 9 0 9 -12 14 -35 14 l-35 0 0 -80z"/>
<path d="M1010 920 l0 -80 36 0 c24 0 34 4 31 13 -2 6 -14 11 -27 9 -22 -4
-22 -2 -18 67 3 53 0 71 -9 71 -10 0 -13 -22 -13 -80z"/>
<path d="M1090 920 c0 -64 3 -80 15 -80 12 0 15 16 15 80 0 64 -3 80 -15 80
-12 0 -15 -16 -15 -80z"/>
<path d="M1143 971 c3 -15 9 -51 13 -80 5 -41 10 -51 25 -51 11 0 19 1 19 3 0
9 22 124 26 140 4 11 0 17 -10 17 -11 0 -17 -16 -22 -61 -7 -63 -24 -64 -24
-2 0 38 -9 63 -22 63 -6 0 -8 -12 -5 -29z"/>
<path d="M1250 920 l0 -80 36 0 c24 0 34 4 31 13 -2 6 -14 11 -25 9 -18 -3
-22 2 -22 22 0 19 5 26 20 26 11 0 20 5 20 10 0 6 -9 10 -20 10 -15 0 -20 7
-20 25 0 20 5 25 25 25 14 0 25 5 25 10 0 6 -16 10 -35 10 l-35 0 0 -80z"/>
<path d="M1330 920 c0 -64 3 -80 15 -80 10 0 15 10 15 30 0 38 18 40 22 3 2
-17 10 -29 21 -31 15 -3 16 0 7 23 -6 15 -8 42 -4 60 10 54 -2 75 -42 75 l-34
0 0 -80z m55 30 c0 -13 -6 -25 -12 -27 -9 -3 -13 6 -13 27 0 21 4 30 13 28 6
-3 12 -15 12 -28z"/>
<path d="M1435 959 c8 -23 15 -59 15 -80 0 -28 4 -39 15 -39 11 0 15 11 15 40
0 22 7 57 15 77 18 43 18 43 2 43 -7 0 -18 -12 -24 -27 l-10 -28 -8 28 c-4 15
-13 27 -21 27 -11 0 -11 -7 1 -41z"/>
<path d="M1607 993 c-16 -15 -6 -61 18 -83 28 -26 33 -50 10 -50 -8 0 -15 7
-15 15 0 8 -4 15 -8 15 -17 0 -21 -13 -11 -32 7 -13 19 -18 37 -16 39 4 43 54
7 88 -14 13 -25 29 -25 37 0 17 27 17 33 1 2 -7 8 -10 12 -6 14 13 -4 38 -28
38 -13 0 -27 -3 -30 -7z"/>
<path d="M1690 920 l0 -80 35 0 c23 0 35 5 35 14 0 9 -7 12 -20 9 -16 -4 -20
0 -20 21 0 16 5 26 15 26 8 0 15 5 15 10 0 6 -7 10 -15 10 -10 0 -15 10 -15
26 0 21 4 25 20 21 13 -3 20 0 20 9 0 9 -12 14 -35 14 l-35 0 0 -80z"/>
<path d="M1780 920 c0 -60 3 -80 13 -80 9 0 12 10 9 30 -3 18 0 30 7 30 6 0
14 -13 18 -30 3 -16 12 -30 19 -30 11 0 13 7 8 27 -4 15 -7 34 -6 43 4 28 1
73 -4 81 -3 5 -18 9 -35 9 l-29 0 0 -80z m50 30 c0 -20 -5 -30 -15 -30 -10 0
-15 10 -15 30 0 20 5 30 15 30 10 0 15 -10 15 -30z"/>
<path d="M1870 998 c0 -16 29 -151 34 -155 16 -16 34 10 40 59 4 29 10 63 13
76 4 16 1 22 -11 22 -12 0 -16 -10 -17 -37 -1 -21 -4 -49 -8 -63 -6 -20 -9
-12 -15 38 -6 43 -12 62 -22 62 -8 0 -14 -1 -14 -2z"/>
<path d="M1980 920 c0 -64 3 -80 15 -80 12 0 15 16 15 80 0 64 -3 80 -15 80
-12 0 -15 -16 -15 -80z"/>
<path d="M2034 986 c-3 -7 -4 -42 -2 -77 3 -64 3 -64 33 -64 25 0 30 4 33 28
2 15 -1 27 -7 27 -6 0 -11 -9 -11 -21 0 -12 -5 -19 -12 -17 -8 3 -14 27 -16
61 -2 46 0 57 13 57 8 0 15 -9 15 -20 0 -11 4 -20 9 -20 16 0 19 13 10 38 -9
25 -56 31 -65 8z"/>
<path d="M2120 920 l0 -80 41 0 c28 0 39 4 36 13 -2 6 -14 11 -25 9 -18 -3
-22 2 -22 22 0 16 6 26 15 26 8 0 15 5 15 10 0 6 -7 10 -15 10 -9 0 -15 10
-15 26 0 20 4 25 22 22 11 -2 23 3 25 10 3 8 -8 12 -36 12 l-41 0 0 -80z"/>
<path d="M1482 130 c-19 -16 -21 -23 -12 -40 17 -32 64 -24 68 13 2 19 -1 27
-12 27 -8 0 -16 4 -18 9 -1 5 -13 1 -26 -9z m18 -20 c0 -5 -4 -10 -10 -10 -5
0 -10 5 -10 10 0 6 5 10 10 10 6 0 10 -4 10 -10z"/>
<path d="M1066 117 c-31 -23 -14 -46 31 -43 24 2 37 7 35 15 -1 7 2 10 8 6 6
-3 8 -11 5 -16 -4 -5 7 -6 25 -3 17 4 30 3 29 -2 -3 -20 2 -24 21 -14 11 6 20
17 20 25 0 8 5 15 10 15 6 0 10 -6 10 -13 0 -8 16 -13 45 -14 44 -1 45 0 45
31 0 17 -4 26 -8 20 -4 -6 -19 -10 -34 -8 -16 1 -28 -2 -28 -7 0 -6 -6 -7 -12
-2 -19 12 -61 11 -77 -1 -12 -9 -13 -8 -8 7 3 9 2 17 -3 17 -6 0 -10 -10 -11
-22 0 -17 -2 -19 -7 -8 -7 16 -39 19 -59 7 -7 -4 -13 -1 -15 8 -3 14 -5 14
-22 2z m51 -29 c-3 -8 -6 -5 -6 6 -1 11 2 17 5 13 3 -3 4 -12 1 -19z"/>
<path d="M1370 100 c0 -32 16 -39 39 -17 11 10 12 7 6 -13 -6 -22 -5 -23 8
-10 8 8 18 26 22 40 7 22 6 23 -9 11 -13 -11 -16 -11 -16 -1 0 8 -3 10 -6 7
-4 -3 -15 -2 -25 4 -17 8 -19 6 -19 -21z"/>
<path d="M1567 123 c-4 -3 -7 -16 -7 -28 0 -24 40 -30 40 -5 1 12 3 12 11 -2
5 -10 15 -18 20 -18 6 0 7 5 4 10 -3 6 -2 10 4 10 5 0 13 -4 16 -10 3 -5 11
-10 17 -10 7 0 6 6 -2 15 -8 9 -8 15 -2 15 6 0 14 -9 17 -20 5 -17 10 -18 27
-9 11 6 36 9 54 6 38 -6 43 2 15 23 -11 7 -18 17 -15 22 3 4 -4 8 -15 8 -12 0
-21 -3 -21 -8 0 -10 -144 -10 -151 0 -3 5 -8 5 -12 1z m180 -25 c-3 -8 -6 -5
-6 6 -1 11 2 17 5 13 3 -3 4 -12 1 -19z"/>
<path d="M1813 103 c-8 -21 4 -28 48 -29 29 0 39 4 39 15 0 14 2 14 9 2 15
-24 43 -23 39 1 -4 26 -37 32 -60 11 -10 -9 -21 -13 -25 -10 -3 4 -1 7 5 7 7
0 12 4 12 8 0 14 -62 10 -67 -5z m27 -7 c0 -3 -4 -8 -10 -11 -5 -3 -10 -1 -10
4 0 6 5 11 10 11 6 0 10 -2 10 -4z"/>
</g>
</svg>
